<svg width="25" height="25" viewBox="0 0 25 25" fill="none" xmlns="http://www.w3.org/2000/svg">
<path d="M3.03417 13.1194L9.88355 19.9687C10.098 20.1832 10.3889 20.3037 10.6922 20.3037C10.9954 20.3037 11.2863 20.1832 11.5008 19.9687C11.7152 19.7543 11.8357 19.4634 11.8357 19.1601C11.8357 18.8568 11.7152 18.566 11.5008 18.3515L6.60061 13.4533H20.5848C20.8875 13.4533 21.1779 13.333 21.392 13.1189C21.606 12.9048 21.7263 12.6145 21.7263 12.3117C21.7263 12.0089 21.606 11.7186 21.392 11.5045C21.1779 11.2904 20.8875 11.1701 20.5848 11.1701H6.60061L11.4989 6.26902C11.7133 6.05457 11.8338 5.7637 11.8338 5.46041C11.8338 5.15713 11.7133 4.86626 11.4989 4.65181C11.2844 4.43735 10.9935 4.31687 10.6903 4.31687C10.387 4.31687 10.0961 4.43735 9.88165 4.65181L3.03227 11.5012C2.92583 11.6074 2.84141 11.7336 2.78387 11.8725C2.72634 12.0114 2.69681 12.1603 2.69699 12.3107C2.69716 12.461 2.72704 12.6099 2.7849 12.7486C2.84277 12.8874 2.92748 13.0134 3.03417 13.1194Z" fill="white"/>
</svg>
