<svg width="60" height="60" viewBox="0 0 60 60" fill="none" xmlns="http://www.w3.org/2000/svg">
<path d="M37.052 10.6501C36.5555 11.5394 36.113 12.4577 35.727 13.4001C31.9339 12.8003 28.0701 12.8003 24.277 13.4001C23.891 12.4577 23.4485 11.5394 22.952 10.6501C19.379 11.2606 15.9055 12.354 12.627 13.9001C6.76434 22.3609 4.10558 32.6325 5.12699 42.8751C8.94758 45.7473 13.2356 47.9378 17.802 49.3501C18.8418 47.9766 19.7697 46.522 20.577 45.0001C19.0872 44.4508 17.6552 43.7558 16.302 42.9251C16.6731 42.6782 17.0242 42.4023 17.352 42.1001C21.2981 44.0009 25.6219 44.988 30.002 44.988C34.3821 44.988 38.7058 44.0009 42.652 42.1001C43.002 42.4001 43.352 42.6751 43.702 42.9251C42.3414 43.7493 40.9109 44.452 39.427 45.0251C40.2008 46.5815 41.1039 48.0701 42.127 49.4751C46.6876 48.0677 50.9683 45.8766 54.777 43.0001C55.8229 32.7557 53.162 22.4756 47.277 14.0251C44.0353 12.447 40.5962 11.3118 37.052 10.6501V10.6501ZM21.702 37.0251C20.4509 36.9353 19.2833 36.3644 18.4443 35.4321C17.6052 34.4998 17.16 33.2787 17.202 32.0251C17.1536 30.7699 17.5967 29.5454 18.437 28.6117C19.2773 27.678 20.4486 27.1088 21.702 27.0251C22.9553 27.1088 24.1266 27.678 24.967 28.6117C25.8073 29.5454 26.2503 30.7699 26.202 32.0251C26.2503 33.2804 25.8073 34.5049 24.967 35.4386C24.1266 36.3723 22.9553 36.9415 21.702 37.0251V37.0251ZM38.302 37.0251C37.0509 36.9353 35.8833 36.3644 35.0443 35.4321C34.2052 34.4998 33.76 33.2787 33.802 32.0251C33.7536 30.7699 34.1967 29.5454 35.037 28.6117C35.8773 27.678 37.0486 27.1088 38.302 27.0251C39.5577 27.1026 40.7328 27.6699 41.5744 28.605C42.416 29.5401 42.8568 30.7683 42.802 32.0251C42.8568 33.282 42.416 34.5102 41.5744 35.4453C40.7328 36.3804 39.5577 36.9477 38.302 37.0251V37.0251Z" fill="white"/>
</svg>
