<svg width="78" height="78" viewBox="0 0 78 78" fill="none" xmlns="http://www.w3.org/2000/svg">
<g filter="url(#filter0_b_42_333)">
<circle cx="39" cy="39" r="38" stroke="white" stroke-opacity="0.1" stroke-width="2"/>
</g>
<g filter="url(#filter1_b_42_333)">
<mask id="path-2-inside-1_42_333" fill="white">
<path d="M78 39C78 33.8784 76.9912 28.807 75.0313 24.0753C73.0714 19.3436 70.1986 15.0443 66.5772 11.4228C62.9557 7.80135 58.6564 4.92863 53.9247 2.9687C49.193 1.00876 44.1216 -2.2387e-07 39 0L39 1.95C43.8655 1.95 48.6833 2.90833 53.1784 4.77026C57.6735 6.6322 61.7579 9.36128 65.1983 12.8017C68.6387 16.2421 71.3678 20.3265 73.2297 24.8216C75.0917 29.3167 76.05 34.1345 76.05 39H78Z"/>
</mask>
<path d="M78 39C78 33.8784 76.9912 28.807 75.0313 24.0753C73.0714 19.3436 70.1986 15.0443 66.5772 11.4228C62.9557 7.80135 58.6564 4.92863 53.9247 2.9687C49.193 1.00876 44.1216 -2.2387e-07 39 0L39 1.95C43.8655 1.95 48.6833 2.90833 53.1784 4.77026C57.6735 6.6322 61.7579 9.36128 65.1983 12.8017C68.6387 16.2421 71.3678 20.3265 73.2297 24.8216C75.0917 29.3167 76.05 34.1345 76.05 39H78Z" stroke="white" stroke-width="4" mask="url(#path-2-inside-1_42_333)"/>
</g>
<g filter="url(#filter2_b_42_333)">
<circle cx="39" cy="39" r="30" fill="black" fill-opacity="0.6"/>
</g>
<path d="M33.5 30V48L48.5 39L33.5 30Z" fill="white"/>
<defs>
<filter id="filter0_b_42_333" x="-6" y="-6" width="90" height="90" filterUnits="userSpaceOnUse" color-interpolation-filters="sRGB">
<feFlood flood-opacity="0" result="BackgroundImageFix"/>
<feGaussianBlur in="BackgroundImageFix" stdDeviation="3"/>
<feComposite in2="SourceAlpha" operator="in" result="effect1_backgroundBlur_42_333"/>
<feBlend mode="normal" in="SourceGraphic" in2="effect1_backgroundBlur_42_333" result="shape"/>
</filter>
<filter id="filter1_b_42_333" x="33" y="-6" width="51" height="51" filterUnits="userSpaceOnUse" color-interpolation-filters="sRGB">
<feFlood flood-opacity="0" result="BackgroundImageFix"/>
<feGaussianBlur in="BackgroundImageFix" stdDeviation="3"/>
<feComposite in2="SourceAlpha" operator="in" result="effect1_backgroundBlur_42_333"/>
<feBlend mode="normal" in="SourceGraphic" in2="effect1_backgroundBlur_42_333" result="shape"/>
</filter>
<filter id="filter2_b_42_333" x="5" y="5" width="68" height="68" filterUnits="userSpaceOnUse" color-interpolation-filters="sRGB">
<feFlood flood-opacity="0" result="BackgroundImageFix"/>
<feGaussianBlur in="BackgroundImageFix" stdDeviation="2"/>
<feComposite in2="SourceAlpha" operator="in" result="effect1_backgroundBlur_42_333"/>
<feBlend mode="normal" in="SourceGraphic" in2="effect1_backgroundBlur_42_333" result="shape"/>
</filter>
</defs>
</svg>
