<svg width="634" height="333" viewBox="0 0 634 333" fill="none" xmlns="http://www.w3.org/2000/svg">
<g clip-path="url(#clip0_464_958)">
<path d="M147.085 217.643H122.487L114.959 189.814C112.45 180.731 110.781 174.286 109.466 167.834C106.841 173.451 103.857 179.537 98.3632 189.93L87.6139 210.003C83.436 217.886 79.3799 218.958 73.4054 218.958C67.4309 218.958 63.3748 217.886 59.1969 210.003L48.4537 189.82C42.601 178.83 39.7385 173.214 37.2294 167.84C36.0357 174.17 34.2451 180.859 31.8578 189.82L24.3363 217.649H0.097168L20.7553 147.414C22.9112 140.012 28.5142 136.424 34.7263 136.424C40.9383 136.424 45.3598 139.647 48.2222 144.904L60.9996 167.481C68.046 179.787 71.152 185.757 73.8926 191.374C76.5236 185.757 79.6235 179.903 86.6699 167.603L99.4412 144.91C102.31 139.775 106.609 136.43 113.059 136.43C119.509 136.43 124.758 140.018 126.908 147.42L147.085 217.655V217.643Z" fill="url(#paint0_linear_464_958)"/>
<path d="M264.378 165.538C264.208 164.855 264.019 164.185 263.812 163.533C263.507 162.559 263.172 161.621 262.795 160.713C262.49 159.97 262.167 159.257 261.814 158.55C254.311 143.369 236.119 136.424 207.392 136.424C168.463 136.424 148.999 149.083 148.999 177.63C148.999 206.177 168.463 218.958 207.392 218.958C246.321 218.958 265.785 206.183 265.785 177.63C265.785 173.226 265.316 169.193 264.378 165.538ZM207.392 198.179C182.556 198.179 173.603 194.834 173.603 177.63C173.603 160.427 182.556 157.21 207.392 157.21C232.228 157.21 241.187 160.433 241.187 177.63C241.187 194.828 232.228 198.179 207.392 198.179Z" fill="url(#paint1_linear_464_958)"/>
<path d="M381.01 137.74L357.976 158.52H333.006V217.649H308.292V158.52H270.794L287.372 137.74H381.01Z" fill="url(#paint2_linear_464_958)"/>
<path d="M483.577 157.636C482.42 155.468 481.031 153.482 479.411 151.654C477.803 149.826 475.952 148.176 473.881 146.689C472.243 145.513 470.458 144.441 468.534 143.479C467.413 142.912 466.244 142.382 465.026 141.889H465.02C464.313 141.596 463.589 141.322 462.846 141.054C461.786 140.682 460.702 140.329 459.581 140C458.911 139.799 458.223 139.61 457.523 139.434C455.142 138.812 452.626 138.294 449.965 137.868H449.959C445.927 137.222 441.566 136.796 436.889 136.582C434.892 136.491 432.839 136.436 430.726 136.43C430.354 136.424 429.989 136.424 429.611 136.424C421.883 136.424 414.922 136.924 408.734 137.947C384.391 141.968 371.894 154.085 371.255 175.839C371.236 176.43 371.224 177.027 371.224 177.63C371.224 182.327 371.754 186.604 372.808 190.466C373.27 192.148 373.831 193.756 374.495 195.285C375.122 196.729 375.834 198.112 376.644 199.421C377.04 200.061 377.454 200.682 377.899 201.286C378.606 202.272 379.373 203.217 380.201 204.112C382.424 206.549 385.073 208.669 388.143 210.491C388.392 210.637 388.648 210.789 388.904 210.929C389.824 211.453 390.774 211.94 391.766 212.41H391.773C393.788 213.36 395.95 214.207 398.271 214.944C403.575 216.643 409.672 217.789 416.548 218.41C420.622 218.776 424.977 218.958 429.611 218.958C453.266 218.958 469.776 214.213 479.064 204.045C485.014 197.527 488.004 188.779 488.004 177.63C488.004 169.79 486.525 163.144 483.577 157.636ZM462.304 186.275C462.145 186.805 461.957 187.304 461.756 187.78C460.044 191.837 456.92 194.402 452.054 195.961C446.774 197.655 439.435 198.179 429.611 198.179C424.16 198.179 419.471 198.014 415.476 197.582C411.408 197.143 408.07 196.418 405.36 195.291H405.354C403.843 194.664 402.528 193.914 401.401 193.019C400.798 192.544 400.25 192.02 399.751 191.453C398.685 190.247 397.857 188.84 397.242 187.201C396.718 185.818 396.352 184.277 396.121 182.553C396.03 181.87 395.957 181.158 395.914 180.408C395.853 179.531 395.823 178.605 395.823 177.63C395.823 176.942 395.835 176.266 395.865 175.62C396.011 172.361 396.535 169.656 397.504 167.426C399.014 163.917 401.59 161.56 405.463 160C407.565 159.147 410.049 158.538 412.961 158.105C417.376 157.454 422.76 157.222 429.234 157.21H430.616C433.838 157.228 436.779 157.295 439.465 157.448H439.471C439.599 157.454 439.733 157.466 439.861 157.472C441.542 157.575 443.119 157.71 444.599 157.886H444.605C447.821 158.27 450.568 158.843 452.882 159.671C454.064 160.085 455.135 160.567 456.098 161.127C456.628 161.432 457.121 161.761 457.59 162.114C459.447 163.509 460.824 165.288 461.768 167.53C462.797 169.967 463.315 172.958 463.394 176.613C463.4 176.942 463.406 177.283 463.406 177.63C463.406 181.024 463.059 183.881 462.304 186.275ZM386.45 211.356C386.45 211.356 386.431 211.362 386.425 211.362C386.425 211.368 386.425 211.374 386.438 211.386L386.462 211.362C386.462 211.362 386.456 211.356 386.45 211.356Z" fill="url(#paint3_linear_464_958)"/>
<path d="M453.66 177.63C453.66 179.293 453.557 180.713 453.349 181.889C453.258 182.425 453.142 182.906 453.008 183.338L452.996 183.387L452.984 183.436C452.929 183.613 452.856 183.801 452.777 183.996C452.521 184.599 452.186 185.404 450.359 186.202C449.994 186.36 449.573 186.518 449.08 186.677C446.382 187.542 442.661 187.987 438.769 188.218C435.688 188.395 432.49 188.431 429.61 188.431C427.533 188.431 425.651 188.407 423.94 188.358C421.059 188.273 418.641 188.121 416.528 187.889C415.115 187.737 413.842 187.548 412.715 187.323H412.709C411.266 187.036 410.06 186.695 409.104 186.293L408.872 186.196C408.872 186.196 408.83 186.177 408.812 186.165C408.257 185.921 407.807 185.659 407.466 185.391C407.447 185.373 407.423 185.361 407.405 185.337C407.277 185.233 407.167 185.136 407.082 185.032L407.064 185.014L407.051 185.002C406.881 184.807 406.619 184.465 406.363 183.777C406.107 183.101 405.913 182.26 405.779 181.261V181.212C405.712 180.774 405.669 180.317 405.639 179.823V179.787L405.632 179.75C405.59 179.092 405.565 178.38 405.565 177.63V177.502C405.565 177.009 405.578 176.528 405.596 176.071C405.663 174.7 405.803 173.652 405.973 172.86C406.12 172.147 406.29 171.648 406.442 171.295C406.558 171.02 406.692 170.758 406.887 170.503C407.252 170.009 407.868 169.54 409.098 169.041C410.419 168.504 412.198 168.072 414.384 167.749C415.907 167.524 417.636 167.347 419.616 167.219C421.723 167.085 424.104 167.006 426.851 166.975H426.857C427.618 166.963 428.404 166.957 429.22 166.957H430.572C432.192 166.969 433.684 166.988 435.079 167.024C436.419 167.061 437.667 167.109 438.842 167.176C439.001 167.182 439.165 167.195 439.33 167.207C440.864 167.304 442.21 167.42 443.441 167.566L443.727 167.597C445.122 167.767 446.37 167.987 447.466 168.242H447.472C448.264 168.419 448.977 168.626 449.604 168.852C450.256 169.077 450.773 169.309 451.175 169.546L451.2 169.558L451.224 169.577C451.401 169.674 451.553 169.772 451.669 169.863L451.699 169.887L451.736 169.912C452.131 170.21 452.466 170.57 452.783 171.325C453.057 171.959 453.368 173.043 453.532 174.834C453.538 174.858 453.538 174.889 453.544 174.919C453.587 175.413 453.624 175.955 453.642 176.552C453.642 176.631 453.648 176.716 453.648 176.802C453.648 177.07 453.654 177.35 453.654 177.63H453.66Z" fill="white"/>
<path d="M454.848 100.669C454.848 100.669 454.837 100.669 454.825 100.669H454.813C454.813 100.658 454.825 100.658 454.837 100.646C454.837 100.658 454.848 100.658 454.848 100.669Z" fill="white"/>
<path d="M394.941 124.983L391.628 127.993H320.348L252.521 64.2401H330.317L394.941 124.983Z" fill="url(#paint4_linear_464_958)"/>
<path d="M615.548 332.324H537.751L427.494 228.687C428.194 228.7 428.9 228.706 429.613 228.706C456.532 228.706 475.028 222.827 486.161 210.722L615.548 332.324Z" fill="url(#paint5_linear_464_958)"/>
<path d="M370.011 253.622C370.151 253.482 370.285 253.342 370.285 253.342C369.567 252.842 368.69 252.44 368.117 251.782L363.799 255.669L372.119 255.693C372.222 255.559 372.313 255.431 372.405 255.297C371.583 254.719 370.797 254.17 370.011 253.622ZM368.623 255.523C368.075 255.115 367.734 254.865 367.119 254.408C367.831 254.042 368.3 253.805 369.049 253.421C368.879 254.286 368.781 254.737 368.623 255.523Z" fill="white"/>
<path d="M375.116 245.483L370.347 249.778C370.347 250.265 370.274 250.521 370.371 250.625C371.523 251.819 372.637 253.055 373.904 254.103C374.294 254.432 375.122 254.243 375.737 254.286C375.749 254.92 375.707 255.383 375.573 255.706L383.776 255.724C384.342 255.316 384.915 254.907 385.5 254.487C385.183 254.243 384.988 254.091 384.793 253.933C384.988 253.732 385.153 253.415 385.39 253.342C387.181 252.775 388.983 252.251 391.005 251.648C388.813 253.043 386.693 254.39 384.598 255.73H388.904L400.11 245.568L375.116 245.483ZM377.016 253.031C376.858 253.11 376.523 252.995 376.346 252.861C376.041 252.635 375.804 252.331 375.487 252.014C376.066 251.423 376.858 250.923 376.151 249.961C376.06 249.833 376.37 249.413 376.791 249.169C376.961 250.241 377.162 251.313 377.302 252.385C377.327 252.593 377.18 252.94 377.016 253.031ZM390.159 250.125C390.043 250.034 389.921 249.943 389.805 249.851C390.597 248.779 391.395 247.701 392.193 246.616C392.327 246.72 392.461 246.823 392.595 246.927C391.785 247.993 390.969 249.059 390.159 250.125Z" fill="white"/>
<path d="M274.114 307.877C274.047 307.932 273.98 307.987 273.919 308.042C273.444 308.438 272.47 308.017 272.208 308.949C272.202 308.974 271.818 308.962 271.782 308.888C271.696 308.724 271.66 308.468 271.739 308.328C271.824 308.182 271.922 308.017 272.031 307.877H266.483C266.483 307.877 266.441 307.932 266.428 307.969C266.063 307.932 265.692 307.902 265.326 307.871H254.144L250.77 310.844C250.91 310.807 251.051 310.789 251.197 310.789C252.604 310.814 252.805 312.44 253.474 313.415C253.554 313.518 253.103 314.231 252.926 314.213C251.672 314.128 250.417 313.914 249.053 313.732C248.956 313.366 248.803 312.964 248.712 312.665L241.988 318.605H267.945L279.973 307.877H274.114ZM258.523 314.834C258.03 315.139 257.5 315.395 256.995 315.657C256.824 315.072 256.708 314.694 256.477 313.92C257.269 314.061 257.847 314.146 258.408 314.298C258.493 314.316 258.584 314.798 258.523 314.834ZM262.165 310.052C262.019 309.906 261.873 309.76 261.727 309.619C262.287 309.077 262.841 308.529 263.395 307.987C263.499 308.09 263.615 308.194 263.718 308.304C263.201 308.888 262.683 309.467 262.165 310.052Z" fill="white"/>
<path d="M323.999 314.682C324.602 313.945 324.943 313.001 325.327 312.099C323.299 312.544 323.268 314.438 322.452 315.772C322.75 315.669 323.006 315.535 323.238 315.376L319.687 318.599H293.846L300.418 312.69L302.89 310.466L305.759 307.883L323.889 307.895C323.743 308.304 323.621 308.7 323.536 309.108C323.384 309.772 323.427 310.485 323.384 311.179C323.932 310.948 324.608 310.85 325.016 310.466C325.905 309.65 326.733 308.779 327.562 307.902H331.472L323.999 314.682Z" fill="white"/>
<path d="M304.165 297.253C302.855 299.452 301.314 301.517 299.542 303.625C299.518 301.883 300.651 299.336 302.076 297.253L291.911 297.241L281.954 306.117C282.021 306.111 282.088 306.111 282.161 306.111C281.552 306.799 281.131 307.268 280.589 307.877H286.064C286.272 307.585 286.162 306.89 286.205 306.488C285.857 306.269 285.401 306.129 285.37 305.934C285.297 305.495 285.455 305.032 285.516 304.575C285.839 304.734 286.442 304.886 286.454 305.069C286.509 306.001 286.515 306.945 286.515 307.883H294.633C294.012 305.733 295.571 303.777 297.94 303.851C296.862 305.27 295.918 306.513 294.877 307.883H298.817C298.817 307.883 298.842 307.871 298.848 307.865C300.121 307.366 300.608 306.47 300.425 305.13C300.407 304.953 300.712 304.624 300.931 304.545C301.637 304.289 302.374 304.112 303.099 303.905C303.239 303.93 303.379 303.96 303.519 303.985C302.325 305.319 302.057 306.61 302.198 307.89H305.754L317.563 297.265L304.165 297.253ZM304.238 305.562C304.11 305.428 303.988 305.3 303.854 305.172C304.39 304.545 304.816 303.741 305.486 303.333C307.332 302.187 309.262 301.176 311.199 300.183C311.784 299.879 312.478 299.793 313.123 299.617C313.209 299.769 313.3 299.933 313.391 300.086C310.255 301.773 307.66 304.338 304.238 305.562Z" fill="white"/>
<path d="M347.513 286.763C346.977 287.207 346.404 287.622 345.814 288.011C345.022 288.535 344.547 289.059 345.15 290.064C344.504 289.059 342.927 288.474 343.999 286.848C344.011 286.824 344.023 286.793 344.029 286.757H337.817L337.226 286.75L329.266 286.732L317.561 297.265L343.152 297.29L354.736 286.775L347.513 286.763ZM330.533 293.896C331.609 292.142 332.687 291.778 333.767 292.806C332.787 293.141 331.77 293.482 330.533 293.896ZM335.247 290.119C335.131 288.609 336.447 288.474 337.214 287.896C336.605 288.578 336.008 289.26 335.247 290.119Z" fill="white"/>
<path d="M372.16 270.942C372.513 270.503 372.824 270.125 373.128 269.748C373.086 269.705 373.037 269.668 372.988 269.626C372.568 269.967 372.142 270.308 371.898 270.503C371.344 270.351 371.003 270.247 370.656 270.15C370.656 270.473 370.504 270.978 370.656 271.088C370.991 271.325 371.167 271.557 371.24 271.776L369.712 273.165C368.884 272.605 368.573 272.775 368.067 273.622C368.299 273.75 368.518 273.902 368.743 274.043L366.222 276.333L340.875 276.284L352.385 265.934L355.534 265.946C353.238 267.201 351.922 268.974 352.367 270.375C353.725 268.846 355.016 267.39 356.295 265.946L364.365 265.965H365.205L377.611 265.995L372.16 270.942Z" fill="white"/>
<path d="M415.676 228.115C409.744 227.585 404.263 226.671 399.324 225.385H397.521L397.466 225.379L394.031 228.468L386.339 235.395L411.212 235.48L419.038 228.377C417.893 228.304 416.772 228.212 415.676 228.115ZM396.011 233.092C395.408 232.946 394.817 232.806 394.141 232.641C394.129 232.921 394.123 233.147 394.111 233.482C393.603 232.974 393.737 232.233 394.512 231.258C395.091 231.77 395.657 232.269 396.224 232.775C396.151 232.885 396.084 232.988 396.011 233.092ZM402.74 229.619C402.308 229.668 401.863 229.577 401.431 229.54C401.449 229.406 401.468 229.266 401.486 229.132C401.687 229.059 401.894 228.98 402.217 228.858C401.632 228.492 401.163 228.206 400.7 227.914C400.743 227.816 400.791 227.719 400.84 227.621C401.321 227.834 401.833 227.999 402.278 228.273C402.619 228.48 402.893 228.803 403.13 229.114C403.173 229.169 402.899 229.607 402.74 229.619ZM408.319 231.313C406.894 230.801 405.463 230.277 404.038 229.76C404.056 229.674 404.08 229.595 404.098 229.522C404.945 229.424 405.785 229.333 406.772 229.223C406.669 229.491 406.583 229.705 406.486 229.948C407.15 230.271 407.814 230.594 408.477 230.917C408.423 231.051 408.374 231.185 408.319 231.313Z" fill="white"/>
<path d="M280.588 307.877C280.588 307.877 280.558 307.914 280.546 307.926C280.546 307.914 280.558 307.89 280.558 307.877H280.594H280.588Z" fill="white"/>
<path d="M547.577 111.642L537.589 120.713L514.032 120.5L524.13 111.417L528.058 111.453C528.691 112.203 529.203 112.879 529.836 113.421C530.75 114.195 531.402 113.969 531.931 112.867C532.145 112.422 532.315 111.953 532.528 111.502L547.583 111.642H547.577Z" fill="white"/>
<path d="M544.836 93.4819C543.423 95.7725 541.047 98.4591 539.494 99.0622C539.982 98.1301 540.457 97.198 540.968 96.2721L534.141 102.407L546.267 102.529C546.699 101.895 547.235 101.341 548.246 101.225C548.039 100.963 547.783 100.664 547.515 100.323C549.281 100.859 549.58 99.245 550.402 98.4347C551.157 97.7037 551.858 96.9239 552.607 96.1868C552.704 96.1015 552.966 96.1624 552.966 96.1624C552.442 97.0031 551.845 97.8072 551.407 98.6906C550.688 100.159 549.811 101.481 548.66 102.553L556.407 102.632C556.474 102.401 556.541 102.175 556.602 101.944C556.73 101.974 556.852 101.999 556.973 102.029C557.004 102.224 556.992 102.431 556.967 102.632H557.485L567.321 93.7073L544.836 93.4819ZM545.353 99.909C546.462 98.6723 546.571 96.662 548.685 95.8274C547.929 97.722 547.534 99.513 545.353 99.909ZM557.034 101.225C557.302 100.238 557.57 99.2571 557.838 98.2702C557.997 98.3129 558.149 98.3555 558.301 98.3982C558.033 99.3851 557.759 100.372 557.491 101.359C557.333 101.31 557.187 101.274 557.034 101.225Z" fill="white"/>
<path d="M586.763 76.059L569.144 75.8701C568.822 76.8509 568.188 77.3383 567.305 77.2652C567.457 76.79 567.604 76.3209 567.756 75.8518L563.718 75.8092L553.937 84.606L559.991 84.667H559.997C560.429 84.1248 560.965 83.7044 561.86 83.808C561.958 83.9359 562.055 84.0699 562.153 84.1979C561.94 84.3563 561.726 84.5207 561.519 84.6852L569.15 84.7644C569.638 82.7236 571.885 83.5156 573.036 82.352C572.768 83.5582 571.836 84.4355 570.618 84.7766L577.074 84.8497L580.399 81.8342C580.369 81.8281 580.338 81.8281 580.308 81.822C579.985 80.1284 581.465 80.5853 582.092 80.0492C582.056 80.165 582.019 80.2807 581.976 80.4026L586.763 76.059ZM572.159 80.1041C572.768 79.2268 573.243 78.5262 573.761 77.7708C574.163 78.8004 573.639 79.6167 572.159 80.1041Z" fill="white"/>
<path d="M599.387 58.6052C598.912 58.9829 598.407 59.0926 597.938 58.8855C598.035 58.788 598.139 58.6905 598.242 58.5869L586.951 58.459C586.512 58.9342 586.086 59.4033 585.648 59.8785C585.465 60.0734 585.203 60.1891 584.899 60.2622C585.325 59.6652 585.733 59.056 586.141 58.4468L583.047 58.4103L573.418 67.0731L595.301 67.3229H595.611L596.366 67.335L597.81 66.0192C597.042 66.1593 596.275 66.3055 595.502 66.4456C595.465 66.2933 595.423 66.1349 595.386 65.9826C596.245 65.7633 597.103 65.5562 597.968 65.343C598.005 65.4892 598.041 65.6293 598.084 65.7755L605.892 58.6783L599.387 58.6052ZM580.203 66.5187C580.282 65.745 580.343 65.0688 580.398 64.4901C581.525 64.7155 582.846 64.9774 584.162 65.2455C583.918 66.4517 582.304 67.0426 580.203 66.5187ZM581.774 61.4197C582.164 60.2744 583.078 59.8845 584.424 59.4703C583.961 61.1943 582.846 61.2552 581.774 61.4197ZM587.487 66.4761C587.688 66.2933 587.846 66.1532 588.102 65.9278C587.645 65.8608 587.298 65.812 586.951 65.7633C586.921 65.6354 586.896 65.5135 586.872 65.3917C587.98 65.0627 589.101 64.7338 590.422 64.3439C589.18 66.604 588.875 66.8233 587.487 66.4761Z" fill="white"/>
<path d="M489.647 148.237C489.519 148.298 489.397 148.353 489.275 148.42C489.239 148.353 489.19 148.292 489.147 148.231H489.647V148.237Z" fill="white"/>
<path d="M492.784 149.474C492.303 150.308 491.87 151.045 491.45 151.77C491.432 151.801 491.414 151.837 491.395 151.868C490.208 151.856 490.738 151.21 490.829 150.735C490.872 150.521 490.835 150.345 490.53 150.266C490.524 150.266 490.518 150.259 490.512 150.259C490.512 150.259 490.516 150.259 490.524 150.259C491.359 149.973 491.998 149.754 492.784 149.48V149.474Z" fill="white"/>
<path d="M507.139 148.365L502.595 152.489C502.461 151.624 502.333 150.783 502.193 149.93C501.688 150.984 501.383 152.312 501.322 153.647L496.828 157.734L494.3 157.716C493.679 156.096 492.967 154.536 492.163 153.037C492.151 153.013 492.132 152.983 492.12 152.958C493.478 152.355 493.746 151.642 493.235 150.131C493.107 149.76 493.18 149.242 493.338 148.858C493.43 148.645 493.478 148.444 493.49 148.261L498.399 148.298H498.984L507.139 148.365Z" fill="white"/>
<path d="M503.863 129.65L493.607 138.885L511.397 139.026C511.238 138.831 511.11 138.624 511.019 138.404C510.422 136.973 509.411 136.26 507.901 135.858C508.376 135.565 508.759 135.334 509.161 135.09C508.973 134.432 508.802 133.829 508.613 133.177C508.23 133.122 507.828 133.062 507.432 133.001C507.42 132.867 507.401 132.726 507.383 132.592C508.327 132.422 509.265 132.257 510.386 132.056C510.434 132.525 510.495 133.086 510.526 133.354C510.824 133.78 511.08 134.036 511.202 134.347C511.47 135.054 511.141 135.943 512.505 136.12C513.814 136.284 514.174 137.765 513.26 138.818C513.723 138.849 514.052 138.861 514.527 138.892C514.503 138.946 514.484 139.001 514.466 139.05L517.371 139.074L527.517 129.851L503.863 129.65ZM516.397 137.978C516.366 137.375 516.336 136.778 516.299 135.955C517.146 136.418 517.73 136.747 518.315 137.07C518.339 137.198 518.358 137.32 518.388 137.454C517.724 137.624 517.06 137.801 516.397 137.978ZM522.414 133.933C523.023 133.25 523.626 132.568 524.235 131.886C524.326 131.977 524.424 132.062 524.521 132.154C523.912 132.83 523.315 133.512 522.706 134.195C522.609 134.109 522.511 134.018 522.414 133.933Z" fill="white"/>
<path d="M454.848 100.669C454.848 100.669 454.837 100.669 454.825 100.669H454.813C454.813 100.658 454.825 100.658 454.837 100.646C454.837 100.658 454.848 100.658 454.848 100.669Z" fill="white"/>
<path d="M547.065 27.9014C547.047 27.8649 547.028 27.8162 547.01 27.7735C546.291 28.3766 545.585 28.9736 544.83 29.6072C544.848 29.2721 544.939 28.9554 545.079 28.6508C544.544 28.9432 544.123 29.3392 543.892 30.0763C543.429 31.514 542.564 31.7516 541.163 31.0449C539.976 30.4479 538.697 30.783 537.905 31.8856C537.509 32.44 537.132 33.0309 536.638 33.5C536.431 33.6949 535.956 33.6096 535.597 33.6523C535.682 33.3233 535.658 32.8908 535.865 32.6776C536.328 32.1841 536.912 31.8125 537.424 31.3739C537.692 31.1485 537.93 30.8926 538.216 30.6063C536.791 29.9057 535.56 30.4662 534.513 32.0927C534.141 32.6654 533.685 33.1954 533.264 33.7376C532.637 34.5539 532.016 35.3702 531.297 36.3023C531.309 35.8576 531.352 35.5895 531.316 35.3215C531.297 35.1387 531.175 34.9743 531.096 34.8037C532.753 34.1701 531.236 33.0004 531.541 32.1293C531.59 31.9831 531.553 31.8003 531.559 31.5871C532.211 31.7577 532.802 31.9283 533.356 32.0745C534.257 30.783 535.183 29.5524 535.987 28.2426C536.163 27.9502 536.042 27.0851 535.871 27.0242C534.367 26.4698 534.647 24.9164 534.172 23.8746C533.94 23.3629 534.817 22.3395 535.256 21.4196C535.627 22.1141 535.871 22.577 536.115 23.0279C536.23 23.0339 536.352 23.0339 536.462 23.0339C536.845 21.7059 537.284 20.3778 537.649 19.0376H533.563C533.806 20.524 533.368 21.7059 532.637 22.638C531.2 24.4656 529.476 26.0678 527.875 27.7674C529.342 24.8859 530.493 21.8095 532.716 19.0376H519.019L509.251 28.0842C508.501 30.0154 506.955 31.3069 505.456 32.6349C505.335 32.507 505.207 32.3852 505.079 32.2694C505.542 31.7333 505.998 31.1972 506.461 30.6611L496.9 39.5128C497.953 38.7696 499.08 38.1725 499.987 37.3318C498.209 39.0803 497.046 41.4805 494.238 42.6562C494.463 42.108 494.738 41.6389 495.054 41.2246L480.017 55.1448C481.351 55.4799 482.454 56.4485 483.556 57.4903C483.97 57.874 484.792 57.8131 485.675 58.0142C486.753 59.7199 486.875 62.8025 490.279 62.7355C490.267 62.772 490.17 62.9365 490.212 62.9852C490.834 63.8137 491.479 64.6179 492.113 65.4342C492.405 65.1601 492.789 64.9347 492.977 64.6057C493.739 63.2716 494.439 61.9069 495.267 60.3779C495.669 61.5902 495.365 62.8086 494.323 63.6188C493.069 64.5935 492.984 65.7449 493.44 67.1704C492.448 67.341 491.388 65.8789 490.846 66.9633C489.963 66.8536 489.372 66.7805 488.733 66.7013C488.824 66.3663 488.927 65.9581 488.976 65.7997C488.458 65.1418 488.069 64.6423 487.679 64.1427C487.88 64.0148 488.075 63.8929 488.416 63.6736C485.974 61.2003 483.257 59.0864 480.139 57.2283C479.859 56.8567 479.555 56.3632 479.189 55.9063L473.397 61.2734C473.562 61.645 473.696 62.0349 473.775 62.4187C473.842 62.7111 473.02 63.1984 472.405 63.7711C472.447 62.9974 472.52 62.3151 472.478 62.309C472.429 62.2968 472.374 62.2846 472.332 62.2603L449.767 83.1436C450.559 83.5823 450.845 84.3194 450.626 85.2271C450.955 85.5743 451.43 85.8485 451.418 86.1043C451.351 88.1391 450.133 89.6499 448.58 89.7474C448.75 91.313 449.067 92.7994 450.748 93.4696C450.145 94.3834 449.755 95.4616 448.988 95.9856C448.245 96.4851 447.112 96.5643 446.15 96.5338C445.072 96.5095 444.542 96.8872 444.103 97.8436C443.799 98.5076 443.141 99.0133 442.66 99.5798C442.861 99.5798 443.299 99.592 443.726 99.592C443.019 100.079 442.294 100.579 441.363 101.231C442.014 101.59 442.294 101.749 442.648 101.944C442.459 102.327 442.294 102.65 442.1 103.034C441.448 101.45 439.907 101.365 438.945 102.577C438.549 102.242 438.031 101.98 437.812 101.554C437.514 100.975 437.447 100.274 437.562 99.5615C436.947 98.8427 436.478 97.8192 435.705 97.4842C435.364 97.338 435.078 97.1674 434.828 96.9725L433.056 98.6173C433.354 99.0011 433.659 99.3849 433.963 99.7687C433.908 99.9027 433.853 100.043 433.799 100.183C433.324 100.067 432.769 100.055 432.386 99.793C432.276 99.7199 432.191 99.6103 432.13 99.4763L429.347 102.047C429.347 102.047 429.371 102.071 429.389 102.078C429.115 102.352 428.841 102.632 428.537 102.949C428.713 103.101 429.079 103.314 429.048 103.406C428.439 105.385 430.303 106.378 431.07 107.603C431.697 108.602 431.704 108.919 431.113 109.619C432.623 111.337 432.69 111.764 431.771 112.714C432.154 114.134 432.514 115.456 432.916 116.96C434.706 115.242 436.551 115.894 438.33 116.028C439.493 116.113 440.662 116.187 441.88 116.266C441.448 116.644 440.894 117.143 440.248 117.722C440.187 117.35 440.151 117.113 440.084 116.692C439.688 116.979 439.371 117.21 439.03 117.46C439.694 117.984 439.864 120.165 439.341 120.658C439.195 120.798 438.799 120.896 438.659 120.804C437.751 120.171 436.917 119.421 435.985 118.843C435.479 118.532 434.822 118.41 434.225 118.368C434.103 118.361 433.726 119.202 433.835 119.537C434.006 120.025 434.548 120.378 434.834 120.847C435.382 121.712 436.022 122.084 437.051 121.621C437.495 121.426 438.037 121.432 438.5 121.347C437.459 123.333 435.449 121.95 433.981 122.662C434.846 121.401 434.359 120.944 432.964 120.414C431.405 119.824 430.071 118.636 430.382 116.522C429.95 116.534 429.639 116.552 429.17 116.564C429.45 115.961 429.676 115.492 429.962 114.901C429.207 114.511 428.348 114.067 427.404 113.579C427.788 112.379 427.087 111.764 425.942 111.307C425.479 111.118 425.163 110.539 424.742 110.101C425.004 109.839 425.217 109.619 425.662 109.187C424.56 109.4 423.768 109.565 422.751 109.76C423.677 109.156 424.359 108.718 425.071 108.255C424.681 107.707 424.383 107.286 424.103 106.902L419.907 110.789C419.505 111.819 419.097 112.836 418.695 113.866C418.5 113.786 418.317 113.713 418.128 113.64C418.384 113 418.64 112.361 418.89 111.727L401.88 127.481C402.02 127.652 402.16 127.822 402.294 127.993H406.362L405.717 128.578C406.192 128.492 406.667 128.407 407.148 128.328C413.786 127.231 421.344 126.677 429.609 126.677C430.01 126.677 430.412 126.677 430.814 126.683C432.952 126.695 435.138 126.75 437.325 126.848C438.385 126.896 439.432 126.951 440.461 127.024C440.017 126.598 439.316 126.129 438.36 125.538C439.128 125.184 439.767 124.63 440.309 124.709C440.815 124.788 441.338 125.477 441.643 126.019C441.673 126.074 441.698 126.123 441.722 126.171L452.861 115.785C452.879 115.419 452.904 115.06 452.928 114.7C453.464 114.59 453.939 114.493 454.329 114.408L499.506 72.2694C498.97 71.6602 498.428 71.051 497.868 70.4601C497.643 70.2225 497.35 70.0337 497.052 69.8875C496.552 69.6499 496.029 69.4732 495.322 69.193C496.321 68.6995 498.69 68.998 499.104 69.5829C499.317 69.8753 499.293 70.3444 499.397 70.8256C499.604 70.7891 499.969 70.7282 500.487 70.649C500.45 70.9292 500.42 71.1972 500.389 71.447L507.405 64.9042C507.679 63.2837 507.953 61.6633 508.221 60.0428C508.337 60.0611 508.447 60.0733 508.562 60.0976C508.331 61.5597 508.087 63.0279 507.85 64.4839L509.732 62.7355C509.732 62.7355 509.677 62.6928 509.646 62.6684C510.438 61.5658 511.23 60.4571 512.022 59.3544C512.131 59.4092 512.235 59.4641 512.344 59.525C512.296 59.9027 512.192 60.2499 512.052 60.5667L547.065 27.9014ZM418.092 117.752C417.532 115.833 417.903 115.139 419.663 114.237C419.164 115.358 418.695 116.394 418.092 117.752ZM421.74 119.373C421.63 121.066 421.04 122.729 420.65 124.411C420.516 124.405 420.382 124.399 420.242 124.399C420.211 124.082 420.077 123.741 420.144 123.454C420.65 121.414 421.216 119.391 421.722 117.344C421.904 116.625 422.245 116.211 423.031 116.296C422.294 117.192 421.825 118.106 421.74 119.373ZM423.202 115.364C423.061 115.626 423.086 115.973 423.031 116.284C422.446 115.791 421.74 115.376 421.368 114.761C421.241 114.548 421.953 113.799 422.319 113.329C422.532 113.043 422.824 112.812 423.068 112.574C423.622 113.421 423.664 114.463 423.202 115.364ZM440.973 123.308L440.699 123.144C441.022 122.352 441.338 121.56 441.655 120.768C441.789 120.78 441.917 120.804 442.045 120.817C441.953 121.395 441.862 121.974 441.771 122.553C441.868 122.547 441.966 122.541 442.069 122.528C441.704 122.79 441.338 123.052 440.973 123.308ZM442.465 114.944C442.325 114.14 442.361 113.104 440.985 113.36C440.894 113.378 440.766 113.147 440.638 113.055C440.145 112.69 439.688 112.19 439.134 111.989C438.013 111.581 437.617 110.978 437.903 109.753C438.263 108.188 437.118 106.951 435.48 106.58C435.029 106.092 434.578 105.599 434.067 105.038C434.432 104.1 434.846 103.052 435.297 101.901C436.594 101.651 436.978 102.778 437.489 103.735C438.433 105.507 439.085 107.451 440.857 108.706C441.308 109.016 441.338 109.924 441.661 110.844C441.673 110.85 442.014 110.887 442.739 110.984C442.16 111.581 441.759 111.989 441.18 112.592C441.874 112.525 442.41 112.47 442.983 112.416C442.745 113.195 444.59 114.408 442.465 114.944ZM444.067 110.887C444.657 109.705 445.169 108.669 445.675 107.646C445.553 107.475 445.431 107.311 445.309 107.14C444.7 107.292 444.097 107.487 443.476 107.591C443.165 107.646 442.818 107.536 442.489 107.499C442.569 107.11 442.52 106.543 442.757 106.354C444.097 105.312 444.115 105.349 442.52 104.496C442.38 104.411 442.319 104.167 442.094 103.777C442.873 103.856 443.366 103.905 444.256 104.003C443.452 103.558 442.995 103.302 442.428 102.985C442.776 102.772 443.05 102.595 443.324 102.425C444.298 103.899 445.193 105.434 447.447 105.136C446.539 106.391 447.733 106.762 448.415 107.378C447.697 107.786 447.081 108.133 446.46 108.486C447.276 109.796 447.124 109.967 444.067 110.887ZM447.27 111.246C447.837 110.698 448.293 110.265 448.799 109.784C448.915 110.411 448.994 110.868 449.109 111.477C448.574 111.404 448.013 111.337 447.27 111.246ZM467.453 76.6374C467.569 76.6618 467.679 76.6739 467.794 76.6922C467.539 78.4102 467.289 80.122 467.033 81.8399C466.905 81.8156 466.789 81.7912 466.662 81.7729C466.93 80.0672 467.191 78.3553 467.453 76.6374ZM458.592 77.5268C458.744 77.5756 458.903 77.6304 459.049 77.6791C459.037 77.9411 459.079 78.2213 458.994 78.4467C458.111 80.6703 457.27 82.9121 456.29 85.087C455.669 86.4577 454.853 87.7309 454.091 89.0224C453.982 89.2113 453.701 89.2965 453.501 89.4306C453.367 89.3392 453.245 89.2478 453.117 89.1564C454.938 85.2819 456.771 81.4013 458.592 77.5268ZM455.535 99.8357C455.303 100.098 455.072 100.372 454.828 100.64C454.542 100.195 454.25 99.7565 453.957 99.3118C454.006 99.2021 454.055 99.0986 454.103 98.995C454.578 99.2752 455.06 99.5555 455.535 99.8357ZM453.744 102.193C453.105 102.114 452.392 102.419 451.74 102.632C450.796 102.943 450.559 102.382 450.376 101.931C451.923 101.499 453.373 101.085 454.822 100.676C454.816 100.676 454.81 100.676 454.804 100.67C454.804 100.67 454.804 100.664 454.81 100.664C454.816 100.664 454.822 100.658 454.828 100.646C454.834 100.658 454.84 100.664 454.84 100.664H454.846C454.846 100.664 454.828 100.676 454.822 100.676C455.169 100.804 455.522 100.938 455.931 101.085C455.413 101.87 454.822 102.327 453.744 102.193ZM458.3 100.463C457.77 98.5442 458.147 97.8497 459.926 96.9725C459.408 98.0873 458.927 99.1168 458.3 100.463ZM459.78 90.521C459.901 92.0623 459.554 93.5975 458.227 94.7428C457.49 94.2189 456.759 93.7071 455.9 93.0919C456.01 92.5801 455.851 91.7821 456.722 91.1485C457.161 90.8317 457.209 89.8875 457.307 89.2113C457.435 88.3523 457.435 87.4811 457.496 86.5186C458.123 86.3054 458.762 86.0982 459.487 85.8607C460.535 87.3958 459.664 89.0041 459.78 90.521ZM461.929 102.145C461.795 103.838 461.18 105.489 460.766 107.158C460.632 107.158 460.498 107.146 460.364 107.14C460.328 106.829 460.206 106.482 460.279 106.196C460.809 104.161 461.4 102.145 461.936 100.116C462.124 99.3971 462.471 98.9828 463.257 99.0803C462.508 99.9636 462.033 100.877 461.929 102.145ZM463.263 99.0681C462.685 98.5746 461.978 98.1482 461.619 97.5207C461.497 97.3075 462.216 96.5765 462.587 96.1013C462.806 95.8211 463.105 95.5957 463.355 95.3581C463.89 96.211 463.921 97.2588 463.446 98.1543C463.3 98.4102 463.318 98.7574 463.263 99.0681ZM465.078 100.341C464.993 101.103 464.463 101.816 464.134 102.547C463.933 102.467 463.732 102.394 463.525 102.327C464.091 99.0255 464.652 95.7297 465.255 92.1354C465.547 92.5253 465.675 92.6167 465.669 92.702C465.498 95.2545 465.364 97.8071 465.078 100.341ZM467.313 87.6152C467.581 87.7309 467.837 87.8527 468.014 88.267C467.636 88.133 467.258 87.9746 466.869 87.8832C466.132 87.7187 465.376 87.6456 464.652 87.4263C464.28 87.3166 463.97 86.9816 463.556 86.6953C465.249 85.4099 466.783 84.2463 468.312 83.0827C468.342 83.1193 468.373 83.1497 468.397 83.1863C467.819 83.8564 467.222 84.5204 466.662 85.2027C465.724 86.3663 465.894 86.9694 467.313 87.6152ZM471.241 75.9003C471.351 75.9551 471.461 76.016 471.564 76.0708C471.388 77.6487 470.316 78.5685 469.268 79.5067C469.146 79.4214 469.031 79.3361 468.909 79.2508C469.688 78.1299 470.468 77.0151 471.241 75.9003ZM469.384 99.3422C469.28 99.2448 469.183 99.1412 469.073 99.0376C470.09 98.1543 471.107 97.271 472.277 96.2597C472.149 97.8253 471.12 98.8427 469.384 99.3422ZM470.029 94.4869C471.54 93.3173 471.479 90.9353 474.116 91.1059C472.74 92.3121 472.642 94.5235 470.029 94.4869ZM474.762 92.9578C474.634 92.8543 474.512 92.7446 474.384 92.635C475.261 91.5201 476.138 90.3992 477.027 89.2539C477.935 90.2103 476.814 91.9527 474.762 92.9578ZM477.551 81.9435C475.565 82.5771 470.803 81.7912 470.176 80.5789C472.709 80.9261 475.145 81.2612 477.581 81.5963C477.569 81.712 477.557 81.8278 477.551 81.9435ZM474.463 75.6261C476.095 76.0526 477.441 76.4059 479.14 76.8506C477.21 77.4233 475.157 76.9176 474.463 75.6261ZM478.824 62.7172C478.812 62.5953 478.799 62.4674 478.787 62.3517C479.165 62.1384 479.548 61.9313 479.999 61.6755C480.212 62.2786 480.371 62.7415 480.59 63.3507C479.944 63.1193 479.384 62.9182 478.824 62.7172ZM486.564 77.2222C486.485 77.143 486.412 77.0699 486.333 76.9968C486.826 76.4181 487.326 75.8454 487.825 75.2667C487.953 75.3946 488.087 75.5286 488.227 75.6627C487.673 76.1805 487.119 76.6983 486.564 77.2222ZM521.547 27.9441L523.337 25.8728C523.423 25.9459 523.514 26.0129 523.599 26.0921C523.002 26.7927 522.399 27.4872 521.796 28.1817C521.711 28.1025 521.626 28.0233 521.547 27.9441ZM526.017 30.4905C526.382 32.0866 525.067 34.298 523.149 35.3337C524.105 33.7193 525.061 32.1049 526.017 30.4905ZM522.917 39.6529C523.453 38.9462 523.898 38.3675 524.537 37.5268C524.829 38.8488 524.379 39.3422 522.917 39.6529ZM524.446 47.4202C524.823 46.2871 525.579 45.8424 526.87 45.8424C526.285 47.6456 526.279 47.6456 524.446 47.4202ZM527.308 23.6371C527.436 23.7528 527.564 23.8625 527.698 23.9782C527.113 24.5874 526.541 25.1966 525.962 25.818C525.81 25.6779 525.664 25.5378 525.512 25.3915C526.108 24.8067 526.711 24.2219 527.308 23.6371ZM524.628 21.1515C524.3 22.3699 523.965 23.5822 523.636 24.7945C522.96 25.1722 522.381 25.5012 521.51 25.9886C522.089 23.9295 523.094 22.4308 524.628 21.1515ZM521.541 46.9328C520.901 46.6892 520.347 46.482 519.787 46.2688C519.775 46.1531 519.762 46.0251 519.75 45.9033C520.134 45.7022 520.524 45.4951 520.974 45.2514C521.175 45.8545 521.334 46.3236 521.541 46.9328ZM520.944 39.8539C520.585 40.8469 520.231 41.8399 519.878 42.8329C519.659 42.7354 519.44 42.638 519.214 42.5466C519.714 41.6084 520.213 40.6642 520.706 39.7321C520.786 39.7747 520.865 39.8174 520.944 39.8539ZM511.748 30.8012C511.924 30.917 512.095 31.0266 512.271 31.1424C511.687 32.0745 511.102 33.0065 510.523 33.9386C510.371 33.8472 510.219 33.7558 510.079 33.6645C510.633 32.708 511.193 31.7577 511.748 30.8012ZM511.729 33.305C513.374 32.9091 514.031 31.5079 515.189 30.6611C515.907 30.1311 516.498 29.4244 517.156 28.8152C517.887 28.1329 517.74 27.3654 517.01 26.9998C516.035 26.5064 516.133 25.7936 516.206 25.0017C518.185 24.3681 518.556 24.5265 519.574 26.5917C519.848 26.4942 520.189 26.3724 520.536 26.2505C520.566 26.3541 520.597 26.4455 520.627 26.549C520.049 26.9816 519.458 27.4202 518.879 27.8527L519.08 28.072C518.977 28.3827 518.952 28.9066 518.751 28.9858C517.96 29.3026 517.003 29.0589 516.754 30.4418C516.638 31.1424 515.457 31.6176 514.805 32.2511C513.794 33.2319 512.868 34.3041 511.821 35.2423C511.425 35.5956 510.791 35.6931 510.055 35.9916C510.706 34.889 511.065 33.4573 511.729 33.305ZM499.707 64.2036C499.975 62.5953 500.937 61.7364 502.046 60.786C502.423 62.1811 501.632 63.3447 499.707 64.2036ZM499.64 46.9998C499.451 47.0242 499.238 46.8293 499.037 46.7318C499.123 46.5612 499.165 46.3175 499.311 46.2262C500.249 45.617 501.218 45.0565 502.174 44.4717C502.277 44.5996 502.369 44.7275 502.472 44.8616C501.717 45.8058 501.017 46.8232 499.64 46.9998ZM504.774 41.0358C505.255 41.45 505.773 41.6876 505.938 42.0775C506.449 43.2837 506.833 44.5509 507.259 45.7875C507.082 45.8667 506.894 45.9337 506.717 46.0068C506.437 45.355 506.157 44.6971 505.791 43.8442C505.085 44.4534 504.384 45.0565 503.629 45.7022C503.702 44.1244 505.529 42.9548 504.774 41.0358ZM503.8 52.9456C505.889 49.7169 507.984 46.4881 510.079 43.2533C510.298 45.2514 505.779 52.2938 503.8 52.9456ZM507.253 52.6227C509.476 50.2469 511.997 48.6325 514.787 47.0851C514.287 49.5341 510.048 52.6471 507.253 52.6227ZM401.453 127.871L401.319 127.993H401.587C401.539 127.956 401.496 127.914 401.453 127.871ZM550.957 19.0376C550.902 19.1533 550.847 19.263 550.786 19.3666C550.378 20.1037 549.903 20.8104 549.434 21.517C549.251 21.8034 549.05 22.1872 548.776 22.2724C548.167 22.4735 547.503 22.51 546.864 22.6136C546.98 22.0409 546.9 21.2916 547.235 20.9261C547.838 20.2682 548.478 19.6468 549.129 19.0376H544.184C544.336 19.7321 544.501 20.4144 544.787 21.048C545.274 22.1141 546.133 23.0705 547.01 23.8868C547.534 24.3803 547.747 24.6605 547.43 25.3489C547.315 25.6048 547.284 25.8911 547.248 26.1774C547.4 26.5612 547.534 26.945 547.674 27.341L556.572 19.0376H550.957Z" fill="url(#paint6_linear_464_958)"/>
<path d="M427.883 109.705C427.304 109.126 426.586 108.76 425.983 108.255C425.404 107.761 424.917 107.189 424.399 106.628L426.726 104.472C427.024 104.624 427.335 104.788 427.779 105.008C427.219 105.452 426.823 105.769 426.427 106.086C426.464 106.153 426.501 106.214 426.537 106.275C426.951 106.123 427.365 105.958 427.786 105.806C429.582 109.199 429.582 109.827 427.883 109.705Z" fill="url(#paint7_linear_464_958)"/>
<path d="M440.625 96.7835C440.637 96.1682 440.637 95.7722 440.65 95.1326C439.791 95.3458 439.084 95.5225 438.366 95.6991C438.384 95.7966 438.408 95.888 438.433 95.9855C438.883 96.0159 439.334 96.0525 439.785 96.0829C439.145 96.4789 438.463 96.9236 437.903 96.8018C437.33 96.6739 436.874 95.9977 436.368 95.559C436.386 95.5408 436.405 95.5164 436.417 95.4981L436.587 95.3458C436.995 95.3763 437.397 95.4128 437.799 95.4433C437.799 95.2788 437.787 95.1143 437.787 94.9498C437.501 94.9742 437.215 95.0047 436.928 95.029L439.553 92.6044C439.626 92.5922 439.687 92.574 439.754 92.5618C439.054 93.9386 440.978 93.2075 441.143 94.0178C440.997 94.3102 440.851 94.5965 440.686 94.9316C441.027 95.2301 441.326 95.4859 441.569 95.6991C441.277 96.0403 441.021 96.3327 440.631 96.7835H440.625Z" fill="url(#paint8_linear_464_958)"/>
<path d="M440.553 92.6533C440.449 92.3548 440.34 92.1294 440.23 91.971L441.679 90.6307C442.002 91.5872 441.454 92.1659 440.553 92.6533Z" fill="url(#paint9_linear_464_958)"/>
<path d="M343.294 213.031C343.532 212.081 343.239 211.873 342.752 211.928V213.695C343.605 213.61 344.415 213.537 345.438 213.433C344.75 211.934 344.049 212.586 343.294 213.031ZM343.599 214.353C343.44 214.383 343.124 214.45 342.752 214.517V218.495L345.219 216.199C344.689 215.596 344.19 215.029 343.599 214.353ZM364.976 197.764C364.379 196.247 363.855 194.664 363.41 193.037C362.131 188.358 361.48 183.18 361.48 177.63C361.48 176.924 361.492 176.217 361.516 175.529C361.595 172.854 361.827 170.283 362.223 167.816L361.723 168.267H357.826L351.699 173.939C350.84 176.424 349.975 178.91 348.922 181.407C348.885 180.92 348.715 180.396 348.83 179.957C349.281 178.374 349.805 176.82 350.274 175.254L342.752 182.218V183.789C343.179 183.674 343.708 183.698 344.214 183.704C342.752 185.44 343.958 187.189 343.739 188.901C343.477 187.847 343.215 186.799 342.959 185.763C342.898 185.757 342.825 185.757 342.752 185.751V210.478C343.099 209.808 343.447 209.144 343.818 208.431C344.476 209.059 345.377 209.424 345.085 210.746C344.866 211.703 346.011 212.263 346.888 211.764C347.119 211.624 347.393 211.538 347.972 211.283C347.917 212.172 347.862 212.994 347.813 213.78L358.447 203.856C357.868 202.742 357.338 201.596 356.748 200.488C356.315 199.671 356.114 199.019 357.131 198.453C357.594 198.197 357.935 197.703 358.295 197.356C358.776 198.039 359.202 198.617 359.604 199.202C359.714 199.367 359.89 199.653 359.829 199.726C359.111 200.615 359.622 200.987 360.603 201.085C359.908 201.779 359.58 202.303 359.592 202.784L364.976 197.764ZM350.176 190.923C350.243 191.014 350.316 191.106 350.389 191.197C350.042 191.648 349.689 192.105 349.238 192.702C348.928 192.19 348.745 191.886 348.41 191.337C349.153 191.167 349.665 191.045 350.176 190.923ZM343.684 201.395C343.227 199.878 343.337 199.702 344.945 198.946C345.115 198.173 345.231 197.594 345.395 196.857C346.065 196.899 346.772 196.948 347.423 197.003C347.618 197.856 347.789 198.605 347.996 199.525C347.271 199.421 346.656 199.336 345.87 199.226C346.12 199.988 346.321 200.646 346.595 201.511C345.499 201.468 344.585 201.426 343.684 201.395ZM350.201 208.803C348.897 208.212 347.789 206.817 345.968 207.877C345.858 208.145 345.676 208.565 345.505 208.986C345.395 208.974 345.292 208.955 345.194 208.943C345.292 207.731 345.395 206.525 345.511 205.087C346.638 205.233 347.789 205.379 349.056 205.544C348.83 205.891 348.629 206.208 348.587 206.269C349.251 207.03 349.872 207.731 350.481 208.425C350.383 208.553 350.292 208.681 350.201 208.803ZM333.221 227.396H318.781C319.079 227.414 319.378 227.609 319.737 227.981C319.841 228.09 320.017 228.261 319.987 228.352C319.682 229.4 321.047 230.43 319.938 231.538C319.421 232.044 318.952 232.885 318.939 233.567C318.921 236.461 317.064 238.696 316.442 241.462C315.961 241.389 315.608 241.34 314.938 241.231C315.639 241.84 316.089 242.23 316.528 242.608C315.431 243.759 314.353 244.88 313.288 245.989L333.221 227.396ZM317.033 273.336C316.625 272.946 315.803 273.007 314.92 272.812C314.859 272.72 314.798 272.617 314.743 272.513H284.846L291.357 266.439L311.722 247.445C312.331 245.855 312.051 243.887 313.775 242.705C314.183 242.425 314.195 241.572 314.134 240.944C314.585 240.421 315.036 239.903 315.602 239.239C314.134 238.989 312.922 239.032 311.722 239.647C309.786 240.646 308.056 239.525 308.166 237.314C307.618 237.375 307.076 237.423 306.534 237.502C306.052 237.569 305.577 237.673 305.072 237.764C304.841 237.344 304.56 236.863 304.134 236.101C303.97 236.711 303.897 237.003 303.799 237.362C303.123 236.912 302.471 236.467 301.747 235.986C301.838 235.23 302.033 234.792 303.099 234.859C304.53 234.944 305.066 234.268 305.303 232.464C304.323 233 303.458 233.482 302.447 234.036C303.087 232.72 303.519 231.423 304.305 230.393C304.694 229.894 305.736 229.887 306.394 229.686C306.99 231.002 307.593 232.227 308.111 233.482C308.513 234.444 308.994 234.639 309.841 233.993C310.218 233.713 310.462 233.226 310.864 233.031C311.454 232.745 311.686 231.624 312.904 232.605C313.69 233.232 315.444 233 316.619 232.665C317.301 232.47 317.703 231.295 318.227 230.564C318.135 230.399 318.038 230.235 317.941 230.07C315.438 230.57 312.934 231.063 310.139 231.624C311.053 230.893 311.722 230.35 312.417 229.82C312.502 229.76 312.679 229.839 312.807 229.808C313.251 229.705 313.872 229.735 314.104 229.449C315.151 228.182 315.961 227.853 317.447 228.334C317.904 227.743 318.276 227.432 318.647 227.396H298.549V226.622C298.33 226.841 298.056 227.085 297.715 227.365C297.465 226.226 298.099 225.489 298.549 224.642V223.138L268.421 251.027C268.5 251.045 268.573 251.057 268.658 251.082C269.176 251.216 269.809 251.173 269.474 252.099C269.395 252.306 270.108 252.769 270.412 253.147C270.741 253.549 271.009 253.993 271.302 254.42C271.174 254.554 271.046 254.694 270.912 254.828C269.481 254.121 268.043 253.403 266.618 252.702L228.968 287.554H290.522C290.34 285.733 293.982 279.854 296.15 278.24C295.937 278.215 295.699 278.154 295.443 278.057C295.705 277.356 295.955 276.686 296.284 275.791C295.76 275.754 295.157 275.705 294.237 275.638C294.731 275.23 295.34 274.554 295.48 274.639C296.089 275.023 296.564 275.62 297.185 276.229C298.61 275.328 299.641 275.104 300.279 275.559C298.927 276.296 298.336 278.294 296.533 278.276C294.536 281.365 292.532 284.466 290.535 287.554H293.884C293.665 287.317 293.44 287.085 293.214 286.866C292.69 286.366 292.483 286.08 292.806 285.398C293.044 284.886 292.958 284.216 293.22 283.728C293.494 283.229 293.945 282.662 294.444 282.474C295.358 282.12 296.064 281.767 296.418 280.719C296.899 279.294 297.764 279.068 299.158 279.793C300.334 280.408 301.613 280.092 302.423 279.001C302.831 278.447 303.208 277.862 303.714 277.405C303.921 277.21 304.396 277.301 304.755 277.259C304.67 277.594 304.682 278.02 304.475 278.24C304.006 278.721 303.421 279.086 302.898 279.513C302.63 279.732 302.392 279.988 302.094 280.268C303.513 280.993 304.755 280.445 305.821 278.837C306.199 278.27 306.661 277.746 307.088 277.204C307.727 276.4 308.361 275.596 309.098 274.67C309.073 275.114 309.031 275.389 309.061 275.651C309.079 275.833 309.201 275.998 309.274 276.174C307.605 276.784 309.11 277.978 308.793 278.837C308.738 278.989 308.775 279.172 308.769 279.385C308.123 279.196 307.532 279.032 306.978 278.873C306.052 280.152 305.121 281.371 304.292 282.662C304.11 282.955 304.219 283.82 304.396 283.893C305.888 284.466 305.584 286.013 306.052 287.061C306.107 287.201 306.089 287.365 306.022 287.554H306.668L319.969 275.474C318.897 275.041 317.965 274.213 317.033 273.336ZM240.491 286.817C241.118 283.844 241.539 283.479 244.322 283.448C244.188 284.636 242.342 286.293 240.491 286.817ZM249.279 281.956C248.938 282.565 248.603 283.174 248.268 283.789C248.128 283.771 247.982 283.753 247.842 283.735C247.83 283.369 247.818 283.004 247.805 282.467C247.379 282.863 247.032 283.186 246.691 283.509C246.569 283.491 246.447 283.473 246.332 283.454C246.478 282.845 246.624 282.242 246.776 281.627C246.636 281.578 246.49 281.535 246.35 281.481C247.227 281.371 248.092 281.237 248.969 281.17C249.157 281.152 249.364 281.359 249.565 281.462C249.474 281.621 249.371 281.791 249.279 281.956ZM254.218 270.125C253.281 269.686 252.604 269.083 253.567 268.206C253.841 267.956 254.681 268.328 255.26 268.407C255.26 268.578 255.266 268.748 255.266 268.913C254.913 269.321 254.566 269.729 254.218 270.125ZM257.093 274.396C257.123 272.531 258.786 270.783 260.205 270.777C259.218 271.928 258.238 273.061 257.093 274.396ZM262.239 285.471C262.148 285.526 262.063 285.574 261.971 285.629C261.533 285.251 261.088 284.868 260.491 284.356C260.997 283.698 261.655 282.833 262.318 281.968C262.452 282.053 262.58 282.145 262.714 282.23C262.318 282.924 261.929 283.625 261.588 284.24C261.819 284.679 262.032 285.075 262.239 285.471ZM263.652 280.299C263.506 280.226 263.366 280.152 263.22 280.079C263.415 278.087 264.249 276.418 266.192 275.37C265.345 277.015 264.499 278.66 263.652 280.299ZM269.292 264.831C266.783 265.593 266.685 267.591 266.612 269.65C266.612 269.705 266.515 269.766 266.18 270.156C266.082 269.217 266.015 268.584 265.979 268.212C265.357 267.676 264.651 267.311 264.346 266.738C263.896 265.903 264.584 265.325 265.217 264.831C265.485 264.624 265.699 264.326 265.985 264.167C266.697 263.771 267.41 263.345 268.177 263.113C268.628 262.973 269.188 263.168 269.7 263.217C269.572 263.777 269.566 264.752 269.292 264.831ZM268.786 261.992C268.695 261.907 268.604 261.828 268.512 261.742C269.109 261.06 269.7 260.366 270.297 259.677C270.418 259.787 270.54 259.903 270.662 260.012C270.035 260.67 269.414 261.334 268.786 261.992ZM289.304 266.379C288.975 264.801 289.816 263.905 291.667 263.984C290.924 264.746 290.175 265.495 289.304 266.379ZM296.747 258.782C293.634 260.488 290.535 262.205 287.422 263.911C287.27 263.997 287.1 264.045 286.941 264.1C286.874 263.936 286.801 263.765 286.728 263.601C289.804 260.481 293.72 258.623 297.617 256.692C298.038 257.758 297.575 258.331 296.747 258.782ZM286.874 251.752C287.441 251.496 287.983 251.136 288.573 251.027C288.902 250.966 289.316 251.331 289.694 251.502C289.651 251.648 289.609 251.788 289.572 251.94C288.738 252.068 287.91 252.184 287.075 252.312C287.008 252.129 286.941 251.94 286.874 251.752ZM290.413 259.653C291.119 258.764 291.6 257.63 292.873 257.338C292.155 258.221 291.783 259.476 290.413 259.653ZM301.564 255.364C301.442 255.267 301.32 255.169 301.205 255.078C301.454 253.987 301.515 252.781 303.044 251.971C302.453 253.329 302.009 254.347 301.564 255.364ZM303.945 238.721C305.346 240.682 304.542 242.486 303.452 244.417C304.256 244.606 304.834 244.746 305.407 244.886C305.346 245.081 305.279 245.27 305.212 245.459C304.39 245.093 303.001 244.886 302.843 244.325C302.301 242.413 301.996 240.341 303.945 238.721ZM301.296 247.792C302.648 247.761 304.213 248.157 305.291 247.597C306.394 247.03 307.009 245.538 307.91 244.362C309.512 245.678 309.798 245.453 310.657 242.199C310.967 242.4 311.327 242.541 311.534 242.796C311.686 242.985 311.771 243.497 311.662 243.594C310.017 244.971 309.14 246.927 307.904 248.608C307.776 248.779 307.63 248.919 307.435 249.15C307.094 248.663 306.814 248.255 306.454 247.737C305.115 249.802 303.464 247.889 301.552 248.127C302.587 248.675 303.306 249.059 304.024 249.437C303.97 249.534 303.915 249.626 303.854 249.729L301.156 248.224C301.205 248.078 301.247 247.938 301.296 247.792ZM299.883 234.566C299.627 235.87 297.8 236.875 296.144 236.68C297.386 235.973 298.635 235.273 299.883 234.566ZM296.229 252.531C296.046 252.745 295.93 252.866 295.827 253C295.705 253.159 295.589 253.323 295.553 253.366C296.777 254.42 297.928 255.419 299.079 256.412C299 256.479 298.927 256.546 298.848 256.607C297.965 256.296 296.984 256.126 296.217 255.626C295.486 255.157 294.901 254.402 294.402 253.665C294.085 253.195 295.041 252.544 296.229 252.531ZM294.219 250.369C294.304 250.954 294.39 251.545 294.438 251.886C293.421 252.653 292.581 253.287 291.661 253.975C291.655 252.873 293.379 250.57 294.219 250.369ZM291.345 230.497C291.466 230.551 291.576 230.606 291.698 230.661C291.637 230.947 291.625 231.252 291.491 231.508C291.07 232.294 290.644 233.086 290.145 233.823C289.566 234.706 289.28 236.01 287.776 235.681C288.969 233.945 290.157 232.221 291.345 230.497ZM287.867 237.058C287.489 238.221 287.112 239.379 286.625 240.871C286.113 238.989 286.564 237.423 287.867 237.058ZM287.983 242.181C287.008 242.681 286.198 243.101 285.291 243.564C285.498 242.291 286.807 241.596 287.983 242.181ZM285.303 240.676C283.604 241.572 281.953 240.859 280.303 240.347C282.002 239.702 283.628 240.664 285.303 240.676ZM277.112 243.68C276.576 244.636 276.204 245.294 275.808 246.001C274.852 245.044 275.242 244.216 277.112 243.68ZM273.725 284.983C274.31 283.174 274.316 283.174 276.143 283.4C275.772 284.533 275.017 284.983 273.725 284.983ZM273.939 261.304C273.476 261.426 273.165 262.218 272.836 262.742C272.465 263.326 272.154 263.96 271.649 264.49C271.277 263.016 272.02 261.944 272.739 260.798C273.866 258.983 274.663 257.015 275.023 254.889C275.084 254.56 275.151 254.213 275.309 253.926C276.521 251.764 277.611 249.504 279.048 247.499C280.071 246.074 281.582 244.99 282.885 243.765C283.025 243.643 283.275 243.637 283.452 243.582C282.428 246.738 281.411 249.839 280.352 253.086C280.071 252.068 279.804 251.082 279.432 249.735C278.835 250.801 278.384 251.587 277.952 252.379C276.88 254.383 275.79 256.382 274.773 258.41C274.542 258.861 274.596 259.452 274.529 259.988C275.376 260.025 276.229 260.128 277.063 260.061C277.349 260.037 277.593 259.543 277.909 259.208C278.305 259.464 278.683 259.708 278.835 259.805C280.157 259.354 281.296 258.971 282.568 258.532C282.508 258.818 282.514 259.257 282.398 259.3C281.131 259.696 280.163 260.707 278.61 260.603C277.069 260.494 275.461 260.908 273.939 261.304ZM278.762 269.741C279.347 266.963 281.271 265.647 283.829 264.776C281.935 264.46 281.095 263.302 280.443 261.663C281.698 261.645 282.611 261.791 283.184 262.815C283.75 263.832 284.456 264.423 285.327 262.985C286.107 263.601 286.661 264.307 285.863 264.947C283.78 266.586 281.582 268.084 279.426 269.619C279.28 269.729 279.042 269.699 278.762 269.741ZM288.031 274.298C288.147 274.883 288.47 275.456 288.299 275.76C286.813 278.422 285.236 281.042 283.512 283.972C284.347 280.293 284.755 276.802 288.031 274.298ZM285.808 283.735C286.314 281.286 290.553 278.179 293.342 278.203C291.119 280.579 288.598 282.187 285.808 283.735ZM317.228 275.754C316.248 277.356 315.273 278.952 314.299 280.555C313.951 278.952 315.291 276.765 317.228 275.754Z" fill="url(#paint10_linear_464_958)"/>
<path d="M571.033 86.1226C571.593 85.9824 572.263 85.818 572.933 85.6474C572.951 85.5804 572.976 85.5134 572.994 85.4524C572.336 85.3123 571.678 85.1722 571.015 85.026C571.015 85.3611 571.027 85.7814 571.033 86.1226Z" fill="white"/>
<path d="M351.633 219.221C351.633 219.221 351.645 219.227 351.645 219.233L351.7 219.184C351.7 219.184 351.658 219.208 351.633 219.221Z" fill="white"/>
<path d="M376.493 237.082C376.797 237.082 377.181 236.79 377.394 236.54C377.906 235.949 378.393 235.346 378.88 234.737L376.255 237.101C376.335 237.094 376.408 237.082 376.493 237.082Z" fill="white"/>
<path d="M358.96 252.812C359.051 252.69 359.142 252.556 359.24 252.422L358.85 252.775C358.887 252.787 358.923 252.799 358.96 252.812Z" fill="white"/>
<path d="M361.933 229.248C361.89 229.29 361.848 229.327 361.799 229.37H362.067C362.024 229.333 361.975 229.297 361.927 229.248H361.933Z" fill="white"/>
<path d="M495.741 88.145C496.009 88.6811 496.277 88.9065 496.557 88.9674L497.586 88.011C497.014 88.0536 496.423 88.0963 495.741 88.145Z" fill="white"/>
<path d="M325.804 267.134C325.487 267.244 324.939 267.433 324.512 267.579C324.482 268.517 324.452 269.358 324.415 270.302C325.274 270.393 326.017 270.497 326.76 270.552C327.643 270.613 327.838 270.046 327.551 269.528C327.107 268.718 326.449 267.999 325.797 267.134H325.804Z" fill="white"/>
<path d="M323.273 265.355L322.329 265.379C322.335 265.562 322.347 265.751 322.359 265.989C322.688 265.763 322.986 265.556 323.273 265.361V265.355Z" fill="white"/>
<path d="M328.008 266.409C328.105 266.129 328.203 265.855 328.337 265.471L326.778 265.428C326.887 265.733 327.277 266.043 328.008 266.403V266.409Z" fill="white"/>
<path d="M491.789 133.597C492.057 133.189 492.331 132.763 492.617 132.33L491.283 133.537C491.399 133.579 491.563 133.604 491.795 133.604L491.789 133.597Z" fill="white"/>
<path d="M490.087 134.615C490.087 134.615 490.087 134.615 490.087 134.609L489.783 134.883C489.886 134.792 489.99 134.706 490.093 134.615H490.087Z" fill="white"/>
<path d="M561.814 56.753C562.423 55.8088 562.879 55.1204 563.318 54.4198C564.317 52.8054 565.328 51.1971 566.29 49.5706L561.101 54.304C561.314 55.0351 561.533 55.7905 561.814 56.7591V56.753Z" fill="white"/>
<path d="M538.245 45.1114H542.642L548.349 39.7992H543.933L538.245 45.1114Z" fill="white"/>
<path d="M360.685 214.377L365.015 210.351H361.172L356.854 214.377H360.685Z" fill="white"/>
<path d="M506.814 79.4275L509.189 79.3666C509.567 78.9767 509.95 78.5808 510.346 78.1665C510.249 78.5625 510.157 78.9585 510.066 79.3423L515.237 79.2143L519.774 75.023L511.777 74.8098L506.814 79.4214V79.4275Z" fill="white"/>
<path d="M495.76 89.7047L494.341 91.0206L495.998 90.9779C495.998 90.8378 496.01 90.6916 496.059 90.5271C496.15 90.1799 496.01 89.8936 495.76 89.7047Z" fill="white"/>
<path d="M498.438 87.9441C498.152 87.9624 497.872 87.9868 497.585 88.0051L496.556 88.9615C496.976 89.0468 497.409 88.7544 497.859 88.5229C497.482 89.8022 498.328 89.5585 499.23 89.3575C498.901 89.8997 498.596 90.4114 498.286 90.9292L502.683 90.8196L507.141 86.7014L505.344 86.6526C504.979 88.3828 503.31 89.1321 502.196 90.2957C502.086 90.2104 501.97 90.1251 501.861 90.0398C502.981 88.9067 504.108 87.7797 505.229 86.6465L499.212 86.4882L498.438 87.207C498.475 87.207 498.511 87.1948 498.548 87.1887C498.493 87.5421 498.45 87.8284 498.438 87.9381V87.9441Z" fill="white"/>
<path d="M350.708 220.11L348.131 222.51H351.932L352.912 221.596C352.455 220.89 351.81 220.311 350.701 220.11H350.708Z" fill="white"/>
<path d="M351.707 219.178L351.652 219.226C352.286 219.817 352.95 220.39 353.626 220.938L356.208 218.538H352.395L352.261 218.666C352.304 218.715 352.341 218.757 352.383 218.806C352.2 218.91 352.012 219.013 351.713 219.178H351.707Z" fill="white"/>
<path d="M336.268 234.968C336.194 236.15 334.879 237.064 334.909 238.349L337.546 235.894C337.504 235.839 337.455 235.785 337.412 235.73C337.778 235.328 338.131 234.92 338.557 234.578H335.202L333.783 235.9C333.88 236.114 333.984 236.339 334.099 236.589C334.812 236.059 335.518 235.529 336.268 234.962V234.968Z" fill="white"/>
<path d="M334.161 238.441C334.058 238.349 333.973 238.258 333.924 238.154C333.662 237.588 333.443 237.003 333.23 236.418L331.062 238.441H334.161Z" fill="white"/>
<path d="M566.235 23.1617L572.131 17.679H567.642L561.765 23.1617H566.235Z" fill="white"/>
<path d="M339.538 230.533H343.314L347.522 226.622H343.734L339.538 230.533Z" fill="white"/>
<path d="M550.881 38.465L545.631 43.3447L550.698 43.2167C551.179 42.7964 551.678 42.3577 552.227 41.8765C552.342 42.4065 552.294 42.8451 552.093 43.1802L554.303 43.1253L559.102 38.6965L550.881 38.4711V38.465Z" fill="white"/>
<path d="M577.162 8.97988C577.114 8.9616 577.071 8.94332 577.022 8.92505L573.819 11.9162H575.835C576.328 11.307 576.815 10.6978 577.26 10.0703C577.443 9.81448 577.333 9.0408 577.162 8.98597V8.97988Z" fill="white"/>
<path d="M483.92 101.286C483.451 101.511 483.11 101.944 482.751 102.248C482.684 102.157 482.617 102.078 482.55 101.992L482.093 102.413L490.363 102.212L494.742 98.1665L486.88 97.9655L484.602 100.085C484.748 100.548 484.645 100.944 483.92 101.292V101.286Z" fill="white"/>
<path d="M542.843 50.9536L537.605 50.8135L532.459 55.5957L541.04 55.3825L544.451 52.2268C543.909 51.8004 543.373 51.3739 542.843 50.9536ZM538.385 54.4809C538.994 53.2868 539.445 52.3913 539.901 51.4958C540.023 51.5811 540.139 51.6603 540.261 51.7456C539.993 52.7142 539.913 53.7803 538.385 54.4809Z" fill="white"/>
<path d="M545.341 51.4044L545.749 51.0267L544.525 50.9962C544.769 51.0876 545.006 51.1912 545.225 51.3191C545.268 51.3435 545.304 51.38 545.347 51.4044H545.341Z" fill="white"/>
<path d="M455.544 126.129L460.563 121.462H456.428L451.421 126.129H455.544Z" fill="white"/>
<path d="M560.138 28.8335H557.568C557.142 30.3504 556.618 31.7759 555.619 33.037L560.138 28.8335Z" fill="white"/>
<path d="M553.36 33.567C554.371 32.0013 555.425 30.454 556.527 28.8335H555.687L549.901 34.231H553.403C553.311 33.9569 553.25 33.7193 553.348 33.567H553.36Z" fill="white"/>
<path d="M486.921 96.9419L491.135 93.0187C490.977 92.8542 490.812 92.6836 490.654 92.5191C490.752 92.4095 490.843 92.2937 490.94 92.1841C491.178 92.2876 491.409 92.4095 491.641 92.5435L492.177 92.0439H487.938L482.853 96.7896C482.877 96.8383 482.907 96.8871 482.932 96.9358H486.915L486.921 96.9419Z" fill="white"/>
<path d="M586.904 4.98338C586.953 5.0443 587.001 5.09913 587.05 5.16005L588.164 5.12959C588.262 4.63614 588.219 4.02085 588.536 3.71625C589.693 2.61969 590.996 1.63888 592.245 0.609333C592.428 0.737265 592.604 0.865197 592.787 0.993128C592.556 1.45612 592.373 1.93739 592.093 2.37601C591.672 3.02785 591.191 3.64924 590.716 4.27062C590.528 4.52039 590.327 4.86154 590.052 4.93465C589.736 5.01994 589.401 5.06867 589.066 5.11132L595.637 4.94074L600.723 0.243813L592.269 0.00622559L586.91 4.98948L586.904 4.98338Z" fill="white"/>
<path d="M465.844 116.552L470.942 111.813H466.77L461.685 116.552H465.844Z" fill="white"/>
<path d="M525.333 61.2123H520.99L518.11 63.8988C518.323 64.6421 517.58 65.6168 516.295 66.3478H519.809L525.327 61.2123H525.333Z" fill="white"/>
<path d="M565.542 26.933C565.719 26.4822 565.969 26.1593 566.31 25.94L564.416 25.8912L559.068 30.8623L567.82 30.6369L572.711 26.1166L567.808 25.9826C567.345 27.1523 567.181 27.134 565.542 26.9391V26.933Z" fill="white"/>
<path d="M302.229 265.349L301.431 266.092C300.719 266.945 299.97 267.798 299.16 268.651C299.16 268.499 299.172 268.34 299.19 268.182L298.313 269.004H301.961L305.889 265.349H302.229Z" fill="white"/>
<path d="M536.745 50.5941H532.372L526.775 55.815H531.13L536.745 50.5941Z" fill="white"/>
<path d="M478.255 113.39L482.555 109.425L474.765 109.224L470.058 113.591L478.255 113.39Z" fill="white"/>
<path d="M470.587 120.481L462.859 120.286L458.242 124.575L466.36 124.38L470.587 120.481Z" fill="white"/>
<path d="M472.109 106.823H476.299L481.476 102.01L477.274 102.004L472.109 106.823Z" fill="white"/>
<path d="M497.154 86.9084H497.708L503.055 81.9374H498.786L494.979 85.489C495.254 85.4403 495.497 85.3976 495.68 85.3672C496.185 85.8972 496.642 86.3724 497.154 86.9084Z" fill="white"/>
<path d="M329.178 243.686L330.518 242.437H326.785L322.704 246.245H325.585C326.377 245.538 327.144 244.807 327.99 244.155C328.283 243.93 328.691 243.826 329.178 243.686Z" fill="white"/>
<path d="M527.213 64.1245C526.756 64.5814 526.3 65.0444 525.727 65.6231C527.183 65.8607 528.388 65.8424 529.588 65.3063C529.935 65.154 530.276 65.0565 530.599 65.02L532.633 63.1437L527.28 63.0035C527.17 63.3386 527.17 63.7711 527.207 64.1306L527.213 64.1245Z" fill="white"/>
<path d="M526.424 63.8564C525.949 63.4787 525.59 63.1985 525.273 62.9426L524.573 62.9243L519.518 67.6212L523.197 67.5299C523.799 66.2566 524.561 65.02 524.932 63.6371C525.407 63.7102 525.754 63.7589 526.424 63.8564Z" fill="white"/>
<path d="M514.102 71.6541H511.733C511.294 71.9343 510.752 72.1536 510.119 72.312C510.015 72.2206 509.918 72.1292 509.814 72.0378C509.985 71.9099 510.155 71.782 510.32 71.6541H509.796L504.382 76.7043H508.669L514.102 71.6541Z" fill="white"/>
<path d="M319.209 252.02C319.185 251.934 319.154 251.843 319.13 251.758C319.715 251.38 320.299 250.996 320.878 250.619C320.811 250.552 320.75 250.491 320.683 250.424C320.713 250.351 320.732 250.265 320.756 250.18H318.49L318.186 250.46C318.186 250.46 318.216 250.485 318.235 250.503C317.632 251.112 317.029 251.715 316.426 252.324C316.383 252.294 316.341 252.257 316.298 252.227L314.465 253.933H315.902C315.975 253.713 316.042 253.494 316.115 253.269C316.791 252.94 317.37 252.659 318.241 252.233C318.034 252.854 317.778 253.415 317.467 253.927H318.162L320.293 251.947C320.251 251.874 320.214 251.8 320.171 251.721C319.903 251.8 319.556 251.904 319.209 252.008V252.02Z" fill="white"/>
<path d="M313.984 257.813H310.3L306.335 261.517H310.007L313.984 257.813Z" fill="white"/>
<path d="M578.207 13.0674L577.811 13.439C577.988 13.3172 578.17 13.1953 578.353 13.0735H578.213L578.207 13.0674Z" fill="white"/>
<path d="M577.844 14.7305C577.631 14.9011 577.162 14.8219 576.809 14.8585C576.864 14.6635 576.882 14.432 576.943 14.2432L572.753 18.136L581.59 17.9045L583.259 16.3632C582.162 16.9419 582.004 16.8445 581.249 16.3632C582.771 15.62 583.332 13.4634 585.743 14.0604L586.578 13.2928L579.336 13.0918C579.263 13.1649 579.19 13.2319 579.123 13.3111C578.721 13.7985 578.338 14.3163 577.844 14.7245V14.7305Z" fill="white"/>
<path d="M340.769 233.774L348.15 233.616L351.664 230.375L344.605 230.21L340.769 233.774Z" fill="white"/>
<path d="M474.712 133.08L473.962 133.762C473.755 133.665 473.542 133.579 473.329 133.494H473.317C473.025 133.372 472.726 133.25 472.428 133.141L474.712 133.08Z" fill="white"/>
<path d="M341.889 239.403L334.885 239.245L331.109 242.754L338.429 242.595L341.889 239.403Z" fill="white"/>
<path d="M331.267 249.217C331.529 248.888 331.828 248.584 332.138 248.291L325.317 248.139L322.242 250.996C322.345 251.155 322.504 251.295 322.723 251.398C322.832 251.447 322.93 251.502 323.009 251.563L328.868 251.435L331.267 249.217Z" fill="white"/>
<path d="M371.689 211.867L370.416 213.043L368.065 215.212L360.556 215.382L364.52 211.697L369.137 211.806L371.689 211.867Z" fill="white"/>
<path d="M545.035 68.1269C543.981 68.6447 542.921 69.1625 541.868 69.6803L544.17 69.7534L550.242 64.2158L542.8 64.429L538.737 64.3072C538.549 64.9956 538.122 65.6535 537.312 66.2323C536.782 65.55 536.588 64.892 536.606 64.2402L535.814 64.2158L533.067 66.744C533.104 66.9572 533.116 67.1826 533.098 67.4263C533.646 67.3776 534.182 67.341 534.718 67.2801C535.199 67.2253 535.674 67.14 536.173 67.0669C536.405 67.4385 536.667 67.8771 537.087 68.5533C537.257 68.0111 537.337 67.7492 537.434 67.4385C538.098 67.8466 538.75 68.2426 539.462 68.6812C539.389 69.1381 539.267 69.4549 538.871 69.595L541.399 69.6742C541.88 68.6691 543.537 67.9624 545.029 68.1391L545.035 68.1269Z" fill="white"/>
<path d="M561.1 54.304L566.289 49.5706C566.289 49.5706 566.319 49.5279 566.332 49.5035L558.834 49.7229L551.776 49.5035L545.631 55.1691L547.001 55.1325C546.977 54.9559 546.952 54.7914 546.934 54.6695C547.957 53.9994 548.798 53.4512 549.717 52.848C549.717 53.4268 549.102 54.3771 548.42 55.0899L551.666 54.9985C551.697 54.895 551.733 54.7914 551.764 54.6817C552.592 54.5782 553.42 54.4807 554.242 54.3771C554.309 54.5416 554.376 54.7122 554.443 54.8767C554.358 54.9071 554.273 54.9498 554.188 54.9863L560.15 55.1691L560.54 54.8158C560.674 54.4685 560.802 54.1213 560.942 53.774C560.997 53.9507 561.045 54.1335 561.1 54.3101V54.304Z" fill="white"/>
<path d="M367.913 229.37C368.12 229.534 368.333 229.705 368.552 229.875L369.259 229.23L365.666 229.321C366.104 229.571 366.536 229.808 366.975 230.022C367.139 230.101 367.687 229.534 367.913 229.37Z" fill="white"/>
<path d="M362.072 229.376H361.804C360.27 230.753 358.838 232.044 357.419 233.317L358.54 233.287L364.63 233.451L365.708 232.47C364.697 231.155 363.193 230.436 362.072 229.376Z" fill="white"/>
<path d="M359.734 230.296C360.087 229.979 360.416 229.668 360.665 229.333L356.664 229.23L352.078 233.451L356.975 233.33C357.87 232.276 358.71 231.21 359.721 230.296H359.734Z" fill="white"/>
<path d="M342.418 251.039L341.559 251.057C340 251.989 338.447 252.927 336.888 253.859L336.437 253.555C336.632 253.092 336.681 252.385 337.046 252.215C337.917 251.813 338.812 251.447 339.714 251.1L339.08 251.118L333.075 250.96L328.666 255.017L334.988 254.865L336.236 254.895C336.364 254.834 336.48 254.767 336.589 254.694C336.522 254.761 336.455 254.828 336.388 254.895L340.968 255.017L343.161 253.019C343.112 252.915 343.063 252.818 343.027 252.726C342.814 252.215 342.564 251.709 342.418 251.027V251.039Z" fill="white"/>
<path d="M345.427 250.966L342.443 251.039C343.04 251.605 343.661 251.91 344.288 252.008L345.427 250.966Z" fill="white"/>
<path d="M352.685 244.344L357.222 240.207L350.815 240.366L344.755 240.207L340.261 244.344L346.649 244.185L352.685 244.344Z" fill="white"/>
<path d="M483.601 124.971L489.161 119.897L482.048 120.092L475.355 119.897L472.632 122.407C472.608 122.735 472.584 123.058 472.553 123.387H471.926C471.926 123.272 471.926 123.162 471.926 123.052L469.849 124.965L472.444 124.892C472.188 124.782 471.932 124.667 471.676 124.557C472.736 123.509 474.185 123.521 475.172 124.63C475.227 124.691 475.282 124.752 475.343 124.813L476.938 124.77L483.601 124.965V124.971Z" fill="white"/>
<path d="M322.279 264.326C322.297 264.691 322.309 264.996 322.327 265.38L323.271 265.355C324.081 264.795 324.763 264.326 325.458 263.875C325.598 263.784 325.896 263.729 326.03 263.802C326.426 264.015 326.779 264.301 327.139 264.551C326.81 264.874 326.682 265.154 326.779 265.434L328.338 265.477C328.357 265.422 328.375 265.374 328.399 265.313C328.442 265.374 328.485 265.428 328.527 265.483L329.483 265.508L333.85 261.523L327.571 261.676L321.621 261.523L317.297 265.508L320.738 265.422C321.237 265.069 321.749 264.71 322.279 264.332V264.326Z" fill="white"/>
<path d="M496.745 106.628L489.979 106.427L484.358 111.612L491.526 111.411L497.19 111.581C497.099 111.021 497.001 110.466 497.086 109.918C497.239 110.479 497.379 111.033 497.525 111.587L498.256 111.612L503.938 106.427L496.745 106.628ZM490.728 108.048C490.655 107.969 490.588 107.889 490.515 107.804C490.868 107.408 491.222 107.006 491.678 106.482C491.977 106.939 492.159 107.213 492.482 107.701C491.745 107.847 491.234 107.944 490.728 108.048Z" fill="white"/>
<path d="M511.759 92.8664L504.925 92.6593L499.176 97.9593L506.424 97.7583L513.226 97.9593L517.745 93.8411C518.062 93.4573 518.385 93.0675 518.708 92.6715L511.765 92.8664H511.759Z" fill="white"/>
<path d="M520.21 78.5991C520.593 80.2074 519.759 82.961 518.675 83.8931L521.647 83.8078L528.523 84.0149L534.461 78.5991L527.104 78.8062L520.216 78.5991H520.21Z" fill="white"/>
<path d="M519.302 79.4154L514.314 84.0088L518.151 83.8991C517.938 82.9366 518.456 80.9871 519.302 79.4154Z" fill="white"/>
<path d="M353.242 222.175L350.581 224.648L355.886 224.533C355.453 224.423 354.881 224.399 354.278 224.271C353.87 223.674 353.608 222.9 353.242 222.175Z" fill="white"/>
<path d="M361.596 221.194L354.482 221.03L354.135 221.353C355.445 222.376 356.839 223.326 358.325 224.216L361.59 221.2L361.596 221.194Z" fill="white"/>
<path d="M322.796 257.046L315.902 256.887L312.248 260.287L319.453 260.134L322.796 257.046Z" fill="white"/>
<path d="M313.478 265.654L312.686 265.635C310.835 266.555 309.154 267.737 307.37 268.754L310.189 268.693L313.484 265.654H313.478Z" fill="white"/>
<path d="M310.742 265.599C310.742 265.599 310.742 265.599 310.748 265.599L306.631 265.507L303.032 268.858L304.518 268.827C304.688 268.663 304.865 268.511 305.072 268.401C306.905 267.39 308.824 266.494 310.748 265.611L310.742 265.599Z" fill="white"/>
<path d="M612.339 5.73268C612.479 5.27578 612.54 5.06866 612.638 4.75187C612.016 4.98337 611.499 5.20877 610.951 5.36716C610.36 5.53165 609.818 6.11039 609.124 5.43418C608.515 4.83716 607.863 4.23405 607.796 3.47865L601.943 3.28979L595.354 9.35742L603.125 9.12592L609.002 9.31478C609.282 9.12592 609.568 8.94316 609.873 8.77259C610.025 8.88834 610.177 9.01018 610.323 9.12592C610.281 9.19903 610.244 9.27822 610.202 9.35133H610.384L615.963 4.27061C615.963 4.1244 615.951 3.99037 615.951 3.83198C614.72 4.47773 613.655 5.0382 612.333 5.73268H612.339Z" fill="white"/>
<path d="M615.085 3.35071L611.863 3.44818C612.186 3.60657 612.515 3.7406 612.856 3.82588C613.66 4.02083 614.519 3.97209 615.085 3.35071Z" fill="white"/>
<path d="M617.04 3.2959L616.455 3.31417C616.473 3.47257 616.492 3.62487 616.51 3.77717L617.034 3.2959H617.04Z" fill="white"/>
<path d="M593.25 24.9834L599.754 19.0498L592.05 19.2813L584.827 19.0498L578.39 24.9834L586.076 24.7519L593.25 24.9834Z" fill="white"/>
<path d="M582.867 34.4503L575.249 34.6757L568.111 34.4503L562.563 39.5615C562.477 39.7991 562.374 40.0245 562.264 40.2316L569.408 40.0245L571.814 40.0976C571.978 39.8235 572.149 39.5554 572.313 39.2813C572.435 39.3422 572.557 39.4031 572.678 39.4579C572.557 39.6772 572.429 39.8905 572.307 40.1098L574.743 40.1829C574.774 39.8722 574.792 39.5554 574.81 39.2386C574.81 39.1838 574.908 39.1351 575.249 38.7939C575.309 39.4092 575.358 39.8661 575.389 40.2073L576.503 40.2438L582.855 34.4503H582.867Z" fill="white"/>
<path d="M631.413 0.067134L624.939 0.23771L619.774 4.93464L628.191 5.16613L633.904 0.00012207L632.777 0.030582C632.253 0.377826 631.766 0.700701 631.376 0.962657C631.389 0.676333 631.401 0.371734 631.419 0.067134H631.413Z" fill="white"/>
<path d="M366.165 220.488L364.143 222.352L366.981 222.279C366.585 221.749 366.305 221.121 366.158 220.512C366.158 220.506 366.158 220.5 366.158 220.488H366.165Z" fill="white"/>
<path d="M381.523 218.045L379.776 219.641L376.81 222.352L376.28 222.333C376.164 221.675 376.042 221.011 375.92 220.354C375.506 220.567 375.196 220.938 375.287 221.054C375.732 221.596 375.579 221.974 375.257 222.309L370.658 222.187L370.135 222.199C369.94 222.011 369.739 221.828 369.544 221.645C369.44 221.548 369.526 221.292 369.52 220.823C368.411 222.187 368.107 220.731 367.449 220.628C367.406 220.615 367.492 220.012 367.54 219.324C367.351 219.482 367.144 219.629 366.943 219.763L368.813 218.045L374.989 218.209L377.193 218.154L381.523 218.045Z" fill="white"/>
<path d="M551.126 74.8219L542.661 75.029L538.05 79.2264L545.426 79.4153C545.614 79.2934 545.809 79.1716 546.01 79.0497C546.053 79.1472 546.059 79.2752 546.047 79.4092L551.126 74.8219ZM542.313 79.0619C541.528 77.9776 541.704 77.545 543.343 76.3693C543.605 77.5146 542.764 78.1786 542.313 79.0619Z" fill="white"/>
<path d="M513.056 109.224L504.834 109.425L500.461 113.397L508.22 113.598L513.056 109.224Z" fill="white"/>
<path d="M488.122 131.557C488.177 131.569 488.226 131.593 488.281 131.618L484.127 135.376L477.13 135.2L476.496 135.181L476.709 134.993L480.711 131.35L488.445 131.167C488.329 131.282 488.232 131.435 488.122 131.557Z" fill="white"/>
<path d="M538.201 86.4943L529.827 86.7014L525.296 90.8196L533.189 91.0267L538.201 86.4943Z" fill="white"/>
<path d="M582.638 38.6904L577.766 43.1254L585.945 43.3508L591.341 38.4711L582.638 38.6904ZM587.766 40.6886C587.492 40.9079 586.663 40.5667 586.091 40.4814C586.091 40.3352 586.085 40.189 586.085 40.0428C586.444 39.6834 586.797 39.3239 587.145 38.9767C588.07 39.3788 588.74 39.921 587.766 40.6886Z" fill="white"/>
<path d="M488.372 124.386H488.383C488.383 124.386 488.395 124.368 488.395 124.362L488.366 124.386H488.372Z" fill="white"/>
<path d="M500.813 120.286L492.664 120.481L490.106 122.809C489.924 123.345 489.753 123.881 489.583 124.417L496.069 124.581L500.813 120.293V120.286Z" fill="white"/>
<path d="M525.517 97.9594L517.216 98.1665L512.764 102.212L520.596 102.413L525.517 97.9594Z" fill="white"/>
<path d="M555.742 63.1436L551.046 67.4141L553.422 67.475C553.763 66.5856 554.11 65.6657 554.548 64.5265C554.92 65.7997 554.731 66.9024 554.049 67.4933L559.086 67.6273L564.28 62.9304L555.742 63.1436ZM555.858 64.7154C557.557 63.9417 559.189 64.5874 560.821 65.0687C559.122 65.6231 557.52 64.7458 555.858 64.7154Z" fill="white"/>
<path d="M618.714 13.7316C618.75 13.6097 618.799 13.4879 618.872 13.3843C618.951 13.2747 619.055 13.1772 619.158 13.0797L610.559 13.3051L605.492 17.9107L607.843 17.9777C607.94 17.9411 608.037 17.8985 608.135 17.8741C608.104 17.9107 608.068 17.9472 608.037 17.9838L613.829 18.1422L618.708 13.7316H618.714Z" fill="white"/>
<path d="M571.74 54.7733C571.819 54.5905 571.119 54.1763 570.82 53.8351C570.504 53.4757 570.242 53.0736 569.95 52.6959C570.084 52.5802 570.211 52.4583 570.345 52.3426C571.6 52.9152 572.849 53.4879 574.091 54.0605L577.678 50.8196L569.06 51.0389L564.84 54.8768C564.73 55.0474 564.621 55.2241 564.517 55.3947L572.069 55.5957C571.734 55.5104 571.503 55.352 571.74 54.7855V54.7733Z" fill="white"/>
<path d="M597.155 27.2862C597.21 26.9146 597.478 26.4942 597.886 26.0861L596.473 26.1226L595.145 27.3288C594.999 27.8406 594.853 28.3584 594.701 28.8701C594.841 28.9128 594.975 28.9615 595.115 29.0041C594.439 29.0711 593.757 29.1442 593.081 29.2052L591.497 30.6429L599.755 30.8683L605.255 25.8972L600.462 26.0191C599.932 27.1156 599.159 27.2862 597.149 27.2862H597.155Z" fill="white"/>
<path d="M345.47 261.517H349.136L353.247 257.813H349.568L345.47 261.517Z" fill="white"/>
<path d="M387.893 226.622H384.111L381.383 229.083C382.053 229.419 382.723 229.754 383.386 230.083C383.35 230.204 383.313 230.326 383.277 230.448C382.911 230.479 382.54 230.503 382.156 230.533H383.551L387.899 226.616L387.893 226.622Z" fill="white"/>
<path d="M379.777 230.533H380.666C380.788 230.113 380.892 229.766 380.983 229.443L379.771 230.533H379.777Z" fill="white"/>
<path d="M589.475 45.1114L595.371 39.8053H590.967L585.09 45.1114H589.475Z" fill="white"/>
<path d="M359.362 248.139L352.072 248.298L351.524 248.797C351.42 249.071 351.329 249.364 351.134 249.565C350.531 250.198 349.916 250.826 349.295 251.447L355.544 251.587L359.362 248.133V248.139Z" fill="white"/>
<path d="M504.68 121.462H500.545L495.374 126.135H499.497L504.68 121.462Z" fill="white"/>
<path d="M609.386 23.1678H613.85L619.94 17.679H615.464L609.386 23.1678Z" fill="white"/>
<path d="M373.797 232.787C373.98 233.128 373.834 233.482 373.542 233.738L375.247 233.774L379.193 230.204L375.899 230.277C375.637 230.411 375.381 230.545 375.119 230.68C375.034 230.552 374.955 230.424 374.869 230.302L373.219 230.338C372.945 230.552 372.671 230.771 372.403 230.984C372.878 231.587 373.444 232.142 373.791 232.787H373.797Z" fill="white"/>
<path d="M372.605 230.357L371.777 230.375L371.399 230.716C371.485 230.783 371.564 230.844 371.649 230.911C371.96 230.728 372.283 230.539 372.599 230.357H372.605Z" fill="white"/>
<path d="M533.115 92.05L527.695 96.9419H530.07C530.868 96.5642 531.8 95.6809 533.931 93.4268C533.949 94.0239 533.98 94.5904 533.919 95.1326L537.348 92.05H533.115Z" fill="white"/>
<path d="M355.389 252.793C356.339 253.518 356.845 252.934 357.484 252.367C357.624 252.239 358.288 252.58 358.842 252.775L359.232 252.422C359.36 252.245 359.494 252.056 359.646 251.843C358.617 251.648 358.16 251.325 358.964 250.503C359.037 250.43 359.049 250.314 359.055 250.174H358.026L353.873 253.926H355.03C354.944 253.829 354.853 253.732 354.743 253.616C354.938 253.372 355.139 253.11 355.395 252.787L355.389 252.793Z" fill="white"/>
<path d="M336.445 268.852L340.147 265.501L332.967 265.654L330.86 267.567C330.872 267.95 330.927 268.334 331.037 268.724L336.445 268.846V268.852Z" fill="white"/>
<path d="M358.337 242.595L365.311 242.754L369.196 239.245L361.845 239.403L358.337 242.595Z" fill="white"/>
<path d="M544.808 81.9374C543.395 83.9416 541.099 86.2383 539.589 86.7683C539.82 86.3723 540.052 85.9764 540.283 85.5804L538.815 86.9084H543.066L548.59 81.9374H544.82H544.808Z" fill="white"/>
<path d="M378.881 234.737C378.924 234.688 378.96 234.633 379.003 234.584H375.294L371.019 238.447H373.966C374.606 237.832 375.209 237.198 376.256 237.1L378.881 234.737Z" fill="white"/>
<path d="M387.186 222.985L386.68 223.442C385.931 223.643 385.194 223.844 384.464 224.051C384.226 224.118 384.068 224.399 383.867 224.581C383.891 224.594 383.909 224.606 383.934 224.624L378.251 224.49L381.881 221.194L382.844 221.17C384.232 221.822 385.682 222.425 387.186 222.985Z" fill="white"/>
<path d="M389.357 221.03L389.333 221.053C389.333 221.053 389.345 221.036 389.351 221.03H389.357Z" fill="white"/>
<path d="M349.678 256.887L342.442 257.046L339.044 260.134L345.92 260.287L349.678 256.887Z" fill="white"/>
<path d="M583.385 50.5941H579.013L574.816 54.3833C574.932 54.4382 575.054 54.493 575.17 54.5478C574.707 55.4799 574.061 55.8089 573.263 55.7906L573.233 55.821H577.587L583.385 50.6002V50.5941Z" fill="white"/>
<path d="M522.087 102.011L516.752 106.829H520.936L526.289 102.011H522.087Z" fill="white"/>
<path d="M624.159 9.82049C624.244 10.0398 624.33 10.2591 624.421 10.4784C624.464 10.582 624.622 10.649 624.64 10.7465C624.713 11.1364 624.762 11.5263 624.811 11.9161H626.34L628.404 10.0581C627.186 9.71084 626.108 9.40015 624.981 9.07727L624.159 9.82049Z" fill="white"/>
<path d="M622.881 10.9779L621.84 11.9161H623.71C623.368 11.648 623.052 11.3312 622.881 10.9779Z" fill="white"/>
<path d="M628.275 9.0833C628.195 9.12595 628.342 9.50974 628.451 10.0154L632.538 6.33582H628.019L626.941 7.30444C627.361 7.23134 627.787 7.1826 628.202 7.10341C628.451 7.75525 629.681 8.33399 628.275 9.0833Z" fill="white"/>
<path d="M368.577 242.669C368.363 242.632 368.162 242.541 367.961 242.437H366.597L362.383 246.245H363.704C364.387 245.617 365.203 245.093 365.952 244.508C366.043 244.581 366.128 244.655 366.22 244.734C365.641 245.239 365.056 245.739 364.478 246.245H366.104L369.161 243.491C369.575 242.79 369.521 242.821 368.577 242.669Z" fill="white"/>
<path d="M550.103 76.7107H554.384L559.993 71.6604H555.693L550.103 76.7107Z" fill="white"/>
<path d="M510.655 116.028C510.655 116.028 510.655 116.059 510.655 116.077L515.394 111.813H511.228L505.978 116.552H507.677C507.677 116.552 507.677 116.522 507.671 116.503C508.603 116.357 509.541 116.205 510.649 116.028H510.655Z" fill="white"/>
<path d="M569.079 62.1507C569.158 62.565 569.213 62.9548 569.249 63.3265L571.594 61.2186H567.258L561.576 66.3542H565.894L568.391 64.1062C568.622 63.4544 568.847 62.8086 569.079 62.1568V62.1507Z" fill="white"/>
<path d="M607.552 28.8335H603.112L597.137 34.231H601.559L607.552 28.8335Z" fill="white"/>
<path d="M341.231 265.349L337.187 269.004H340.829L341.779 268.145C342.065 267.853 342.358 267.567 342.644 267.274C342.662 267.286 342.68 267.299 342.705 267.311L344.885 265.343H341.231V265.349Z" fill="white"/>
<path d="M490.088 134.603C490.027 134.53 489.96 134.457 489.899 134.377C488.936 134.773 487.974 135.163 487.018 135.559H488.991C489.265 135.322 489.533 135.096 489.789 134.877L490.094 134.603H490.088Z" fill="white"/>
<path d="M489.644 131.514C489.492 131.605 489.333 131.685 489.169 131.739L488.103 132.702C488.956 132.927 489.157 131.965 489.644 131.514Z" fill="white"/>
<path d="M488.218 133.811C487.706 133.786 487.444 133.616 487.408 133.329L484.935 135.565H486.415C486.415 135.565 486.385 135.529 486.366 135.51C486.981 134.944 487.603 134.377 488.218 133.811Z" fill="white"/>
<path d="M494.126 130.966H493.706C493.639 131.118 493.59 131.295 493.566 131.471L494.126 130.966Z" fill="white"/>
<path d="M490.91 132.172C491.799 132.373 490.544 133.281 491.275 133.531L492.609 132.324C492.786 132.05 492.968 131.77 493.163 131.471C492.378 131.715 491.744 131.91 490.904 132.166L490.91 132.172Z" fill="white"/>
<path d="M375.835 219.683C375.835 219.683 375.811 219.69 375.805 219.69C375.805 219.69 375.805 219.702 375.823 219.72C375.835 219.702 375.841 219.696 375.853 219.69C375.853 219.69 375.847 219.687 375.835 219.683ZM476.708 134.993L476.494 135.181L477.128 135.2C476.988 135.127 476.848 135.053 476.708 134.993ZM389.349 221.03C389.349 221.03 389.337 221.042 389.331 221.054L389.355 221.03H389.349ZM377.193 218.154C377.437 218.307 377.686 218.459 377.936 218.605C378.247 218.788 378.563 218.977 378.88 219.153C379.172 219.318 379.471 219.482 379.775 219.641L381.523 218.045L377.193 218.154ZM369.136 211.806C369.55 212.227 369.976 212.635 370.415 213.043L371.688 211.867L369.136 211.806Z" fill="white"/>
</g>
<defs>
<linearGradient id="paint0_linear_464_958" x1="73.5911" y1="136.424" x2="73.5911" y2="218.958" gradientUnits="userSpaceOnUse">
<stop stop-color="#F43329"/>
<stop offset="1" stop-color="#CD2118"/>
</linearGradient>
<linearGradient id="paint1_linear_464_958" x1="207.392" y1="136.424" x2="207.392" y2="218.958" gradientUnits="userSpaceOnUse">
<stop stop-color="#F43329"/>
<stop offset="1" stop-color="#CD2118"/>
</linearGradient>
<linearGradient id="paint2_linear_464_958" x1="325.902" y1="137.74" x2="325.902" y2="217.649" gradientUnits="userSpaceOnUse">
<stop stop-color="#F43329"/>
<stop offset="1" stop-color="#CD2118"/>
</linearGradient>
<linearGradient id="paint3_linear_464_958" x1="429.614" y1="136.424" x2="429.614" y2="218.958" gradientUnits="userSpaceOnUse">
<stop stop-color="#F43329"/>
<stop offset="1" stop-color="#CD2118"/>
</linearGradient>
<linearGradient id="paint4_linear_464_958" x1="323.731" y1="64.2401" x2="323.731" y2="127.993" gradientUnits="userSpaceOnUse">
<stop stop-color="#F43329"/>
<stop offset="1" stop-color="#C4241C"/>
</linearGradient>
<linearGradient id="paint5_linear_464_958" x1="521.521" y1="210.722" x2="521.521" y2="332.324" gradientUnits="userSpaceOnUse">
<stop stop-color="#F43329"/>
<stop offset="1" stop-color="#C4241C"/>
</linearGradient>
<linearGradient id="paint6_linear_464_958" x1="478.946" y1="19.0376" x2="478.946" y2="128.578" gradientUnits="userSpaceOnUse">
<stop stop-color="#F43329"/>
<stop offset="1" stop-color="#CD180F"/>
</linearGradient>
<linearGradient id="paint7_linear_464_958" x1="426.772" y1="104.472" x2="426.772" y2="109.719" gradientUnits="userSpaceOnUse">
<stop stop-color="#F43329"/>
<stop offset="1" stop-color="#CD180F"/>
</linearGradient>
<linearGradient id="paint8_linear_464_958" x1="438.969" y1="92.5618" x2="438.969" y2="96.8223" gradientUnits="userSpaceOnUse">
<stop stop-color="#F43329"/>
<stop offset="1" stop-color="#CD180F"/>
</linearGradient>
<linearGradient id="paint9_linear_464_958" x1="441.001" y1="90.6307" x2="441.001" y2="92.6533" gradientUnits="userSpaceOnUse">
<stop stop-color="#F43329"/>
<stop offset="1" stop-color="#CD180F"/>
</linearGradient>
<linearGradient id="paint10_linear_464_958" x1="296.972" y1="167.816" x2="296.972" y2="287.554" gradientUnits="userSpaceOnUse">
<stop stop-color="#F43329"/>
<stop offset="1" stop-color="#CD180F"/>
</linearGradient>
<clipPath id="clip0_464_958">
<rect width="633.805" height="332.324" fill="white" transform="translate(0.0976562)"/>
</clipPath>
</defs>
</svg>
