<svg width="981" height="458" viewBox="0 0 981 458" fill="none" xmlns="http://www.w3.org/2000/svg">
<g filter="url(#filter0_b_119_1732)">
<path d="M566 181.5L661.5 277H799.5L981 458.5H139L0 319.5V16H54.5L220 181.5H566Z" fill="white" fill-opacity="0.05"/>
</g>
<path d="M733 439L562 268H602.5L773.5 439H733Z" fill="#F43329"/>
<path d="M248 414L77 243H107.5L278.5 414H248Z" fill="#F43329"/>
<path d="M277.5 88L499 309.5H452L321.5 179H288L197 88H277.5Z" fill="#D9D9D9"/>
<path d="M320 340L468.5 488.5" stroke="#F43329"/>
<path d="M-38 1L133 172H92.5L61.5 141" stroke="white"/>
<path d="M468.5 162H576.5L673.5 259H792.5" stroke="white"/>
<defs>
<filter id="filter0_b_119_1732" x="-30" y="-14" width="1041" height="502.5" filterUnits="userSpaceOnUse" color-interpolation-filters="sRGB">
<feFlood flood-opacity="0" result="BackgroundImageFix"/>
<feGaussianBlur in="BackgroundImageFix" stdDeviation="15"/>
<feComposite in2="SourceAlpha" operator="in" result="effect1_backgroundBlur_119_1732"/>
<feBlend mode="normal" in="SourceGraphic" in2="effect1_backgroundBlur_119_1732" result="shape"/>
</filter>
</defs>
</svg>
