<svg width="506" height="79" viewBox="0 0 506 79" fill="none" xmlns="http://www.w3.org/2000/svg">
<path d="M1 76.4828V77.4828H2H18.5646H19.5646V76.4828V50.2759H52.1541L67.7047 76.9859L67.994 77.4828H68.5689H87.4112H89.2019L88.2625 75.9582L71.9396 49.4664C77.1767 48.3258 81.3399 45.9356 84.3543 42.2542C87.652 38.2268 89.2394 32.7333 89.2394 25.8966C89.2394 17.8606 87.0491 11.6841 82.4937 7.5708C78.044 3.49055 71.8366 1.51724 64.0137 1.51724H2H1V2.51724V76.4828ZM68.3076 32.8143L68.2998 32.8215L68.2921 32.8288C66.9523 34.1094 64.9263 34.8275 62.0474 34.8276C62.0471 34.8276 62.0469 34.8276 62.0466 34.8276L19.5646 34.7265V16.9655H62.0466C64.9259 16.9655 66.9522 17.6836 68.2921 18.9643L68.3081 18.9796L68.3248 18.9942C69.6558 20.1579 70.4677 22.3454 70.4677 25.8966C70.4677 29.3657 69.6616 31.5741 68.3076 32.8143ZM99.6758 76.4828V77.4828H100.676H117.24H118.24V76.4828V2.51724V1.51724H117.24H100.676H99.6758V2.51724V76.4828ZM130.714 76.4828V77.4828H131.714H177.06C190.596 77.4828 201.245 74.3102 208.869 67.831C216.533 61.3186 220.299 51.7993 220.299 39.4483C220.299 27.0972 216.533 17.5779 208.869 11.0656C201.245 4.58633 190.596 1.41379 177.06 1.41379L177.057 1.4138L143.931 1.51724H143.929H131.714H130.714V2.51724V76.4828ZM195.049 22.3154L195.056 22.3212C199.231 25.7871 201.424 31.4122 201.424 39.4483C201.424 47.4106 199.234 53.0433 195.049 56.5812C190.813 60.1631 184.491 62.0345 175.921 62.0345H149.279V16.8621H175.921C184.491 16.8621 190.813 18.7334 195.049 22.3154ZM228.682 76.4828V77.4828H229.682H310.849H311.849V76.4828V63.0345V62.0345H310.849H247.247V46.7586H304.844H305.844V45.7586V32.3103V31.3103H304.844H247.247V16.9655H310.849H311.849V15.9655V2.51724V1.51724H310.849H229.682H228.682V2.51724V76.4828ZM321.191 76.4828V77.4828H322.191H338.755H339.755V76.4828V50.2759H372.345L387.895 76.9859L388.185 77.4828H388.76H407.602H409.393L408.453 75.9582L392.13 49.4664C397.367 48.3258 401.531 45.9356 404.545 42.2542C407.843 38.2268 409.43 32.7333 409.43 25.8966C409.43 17.8603 407.24 11.6836 402.684 7.57035C398.234 3.49041 392.027 1.51724 384.204 1.51724H322.191H321.191V2.51724V76.4828ZM388.498 32.8143L388.49 32.8215L388.483 32.8288C387.143 34.1094 385.117 34.8275 382.238 34.8276C382.238 34.8276 382.238 34.8276 382.237 34.8276L339.755 34.7265V16.9655H382.237C385.117 16.9655 387.143 17.6836 388.483 18.9643L388.499 18.9796L388.516 18.9942C389.847 20.1579 390.658 22.3454 390.658 25.8966C390.658 29.3657 389.852 31.5741 388.498 32.8143ZM417.485 77V78H418.485H479.774C487.593 78 493.797 76.0636 498.247 72.0564C502.795 68.0236 505 62.1651 505 54.6552C505 47.0827 502.798 41.2184 498.244 37.251C493.794 33.2458 487.591 31.3103 479.774 31.3103H442.711C439.886 31.3103 437.825 30.6872 436.405 29.5686C435.06 28.4427 434.29 26.6072 434.29 23.8276C434.29 21.0376 435.065 19.2505 436.395 18.1981L436.405 18.1903L436.414 18.1823C437.834 17.0005 439.889 16.3449 442.71 16.3448C442.71 16.3448 442.711 16.3448 442.711 16.3448L499.132 16.4483L500.134 16.4501V15.4483V2V1H499.134H440.951C433.134 1 426.901 2.90113 422.384 6.83187C417.897 10.7283 415.725 16.4548 415.725 23.8276C415.725 31.2019 417.897 36.9578 422.378 40.9214L422.384 40.9272L422.391 40.9328C426.908 44.7907 433.138 46.6552 440.951 46.6552H478.014C480.905 46.6552 482.938 47.3445 484.277 48.5663L484.293 48.5816L484.311 48.5961C485.648 49.7094 486.435 51.636 486.435 54.6552C486.435 57.6685 485.65 59.645 484.294 60.8318C482.955 61.995 480.916 62.6549 478.016 62.6552C478.015 62.6552 478.015 62.6552 478.014 62.6552L418.487 62.5517L417.485 62.55V63.5517V77Z" stroke="white" stroke-width="2"/>
</svg>
