<svg width="28" height="28" viewBox="0 0 28 28" fill="none" xmlns="http://www.w3.org/2000/svg">
<path d="M22.8549 7.80516C21.6919 7.54942 20.6399 6.93184 19.8497 6.04104C19.0595 5.15024 18.5718 4.03201 18.4566 2.84683V2.3335H14.4316V18.2818C14.4324 18.9895 14.2106 19.6795 13.7974 20.254C13.3843 20.8286 12.8009 21.2586 12.1298 21.4831C11.4588 21.7077 10.734 21.7154 10.0583 21.5052C9.38261 21.295 8.79017 20.8775 8.36493 20.3118C7.98395 19.8111 7.75066 19.2139 7.69144 18.5875C7.63223 17.9611 7.74944 17.3307 8.02983 16.7675C8.31023 16.2043 8.74261 15.7308 9.27809 15.4005C9.81357 15.0702 10.4308 14.8963 11.0599 14.8985C11.4079 14.8965 11.7541 14.9476 12.0866 15.0502V10.9668C11.6997 10.9189 11.3097 10.8994 10.9199 10.9085C9.48412 10.9469 8.09066 11.4031 6.91019 12.2213C5.72972 13.0395 4.81346 14.1842 4.27363 15.5152C3.7338 16.8463 3.59382 18.3058 3.87083 19.7151C4.14784 21.1245 4.82982 22.4225 5.83326 23.4502C6.86166 24.4957 8.17767 25.212 9.61407 25.5079C11.0505 25.8039 12.5424 25.6661 13.9004 25.1122C15.2583 24.5583 16.4209 23.6132 17.2405 22.397C18.0601 21.1808 18.4996 19.7484 18.5033 18.2818V10.1152C20.1266 11.2748 22.0733 11.8951 24.0683 11.8885V7.92183C23.6764 7.92345 23.2854 7.88435 22.9016 7.80516H22.8549Z" fill="white"/>
</svg>
