<svg width="28" height="28" viewBox="0 0 28 28" fill="none" xmlns="http://www.w3.org/2000/svg">
<path d="M25.1917 8.40367C25.0588 7.91064 24.7991 7.46101 24.4385 7.09953C24.0778 6.73806 23.6288 6.47734 23.1361 6.34334C21.3091 5.84167 13.9999 5.8335 13.9999 5.8335C13.9999 5.8335 6.6919 5.82534 4.86373 6.30484C4.37131 6.44501 3.92319 6.70941 3.56239 7.07266C3.20159 7.43591 2.94023 7.88581 2.8034 8.37917C2.32156 10.2062 2.3169 13.9955 2.3169 13.9955C2.3169 13.9955 2.31223 17.8035 2.79056 19.6118C3.0589 20.6117 3.8464 21.4015 4.8474 21.671C6.69306 22.1727 13.9824 22.1808 13.9824 22.1808C13.9824 22.1808 21.2916 22.189 23.1186 21.7107C23.6115 21.5769 24.0609 21.3168 24.4225 20.956C24.784 20.5953 25.0452 20.1464 25.1801 19.6538C25.6631 17.828 25.6666 14.0398 25.6666 14.0398C25.6666 14.0398 25.6899 10.2307 25.1917 8.40367ZM11.6619 17.506L11.6677 10.506L17.7426 14.0118L11.6619 17.506Z" fill="white"/>
</svg>
