<svg width="28" height="28" viewBox="0 0 28 28" fill="none" xmlns="http://www.w3.org/2000/svg">
<path d="M22.9051 9.32997C22.9202 9.53413 22.9203 9.73713 22.9203 9.94013C22.9203 16.1526 18.1918 23.3113 9.55025 23.3113C6.88792 23.3113 4.41459 22.5401 2.33325 21.2008C2.71125 21.244 3.07525 21.2591 3.46842 21.2591C5.58358 21.2642 7.63884 20.557 9.30292 19.2513C8.32224 19.2335 7.37159 18.91 6.5837 18.3258C5.7958 17.7416 5.21 16.926 4.90808 15.9928C5.19859 16.036 5.49025 16.0651 5.79592 16.0651C6.21709 16.0651 6.64058 16.0068 7.03375 15.9053C5.96947 15.6904 5.01247 15.1135 4.32547 14.2728C3.63848 13.432 3.26389 12.3792 3.26542 11.2935V11.2351C3.89192 11.584 4.61875 11.8021 5.38875 11.8313C4.74369 11.4026 4.21476 10.821 3.84915 10.1382C3.48354 9.45545 3.29262 8.6928 3.29342 7.9183C3.29342 7.04563 3.52559 6.2453 3.93275 5.54763C5.11358 7.00016 6.58634 8.18845 8.25564 9.03557C9.92495 9.88268 11.7536 10.3697 13.6231 10.4651C13.5508 10.1151 13.5064 9.7523 13.5064 9.3883C13.5061 8.77109 13.6275 8.15987 13.8635 7.58958C14.0996 7.01929 14.4457 6.50112 14.8821 6.06468C15.3186 5.62825 15.8367 5.28211 16.407 5.04606C16.9773 4.81 17.5885 4.68866 18.2058 4.68897C19.5591 4.68897 20.7806 5.25597 21.6393 6.17297C22.6913 5.96952 23.7002 5.58546 24.6213 5.0378C24.2706 6.12375 23.536 7.04459 22.5551 7.6278C23.4882 7.52137 24.4001 7.27599 25.2606 6.8998C24.6179 7.83675 23.8215 8.65837 22.9051 9.32997Z" fill="white"/>
</svg>
