<svg width="28" height="28" viewBox="0 0 28 28" fill="none" xmlns="http://www.w3.org/2000/svg">
<path d="M13.9989 8.60645C12.5682 8.60645 11.196 9.17481 10.1843 10.1865C9.17261 11.1982 8.60425 12.5704 8.60425 14.0011C8.60425 15.4319 9.17261 16.804 10.1843 17.8157C11.196 18.8274 12.5682 19.3958 13.9989 19.3958C15.4297 19.3958 16.8018 18.8274 17.8135 17.8157C18.8252 16.804 19.3936 15.4319 19.3936 14.0011C19.3936 12.5704 18.8252 11.1982 17.8135 10.1865C16.8018 9.17481 15.4297 8.60645 13.9989 8.60645ZM13.9989 17.5046C13.0694 17.5046 12.178 17.1354 11.5207 16.4781C10.8635 15.8209 10.4942 14.9294 10.4942 13.9999C10.4942 13.0704 10.8635 12.179 11.5207 11.5218C12.178 10.8645 13.0694 10.4953 13.9989 10.4953C14.9284 10.4953 15.8198 10.8645 16.4771 11.5218C17.1343 12.179 17.5036 13.0704 17.5036 13.9999C17.5036 14.9294 17.1343 15.8209 16.4771 16.4781C15.8198 17.1354 14.9284 17.5046 13.9989 17.5046Z" fill="white"/>
<path d="M19.607 9.66572C20.3016 9.66572 20.8647 9.10265 20.8647 8.40806C20.8647 7.71347 20.3016 7.15039 19.607 7.15039C18.9124 7.15039 18.3494 7.71347 18.3494 8.40806C18.3494 9.10265 18.9124 9.66572 19.607 9.66572Z" fill="white"/>
<path d="M23.9553 7.12953C23.6852 6.43207 23.2725 5.79869 22.7435 5.26993C22.2145 4.74117 21.581 4.32868 20.8834 4.05886C20.0672 3.75244 19.2048 3.58676 18.3331 3.56886C17.2096 3.51986 16.8538 3.50586 14.0048 3.50586C11.1558 3.50586 10.7906 3.50586 9.67644 3.56886C8.8054 3.58584 7.94366 3.75156 7.12844 4.05886C6.4307 4.32836 5.797 4.74074 5.268 5.26954C4.739 5.79834 4.32637 6.43189 4.05661 7.12953C3.75013 7.94574 3.58483 8.80817 3.56777 9.67986C3.51761 10.8022 3.50244 11.158 3.50244 14.0082C3.50244 16.8572 3.50244 17.22 3.56777 18.3365C3.58527 19.2092 3.74977 20.0702 4.05661 20.888C4.32713 21.5854 4.74015 22.2187 5.26928 22.7474C5.79841 23.2762 6.43202 23.6887 7.12961 23.9587C7.94328 24.2774 8.80537 24.455 9.67877 24.4837C10.8023 24.5327 11.1581 24.5479 14.0071 24.5479C16.8561 24.5479 17.2213 24.5479 18.3354 24.4837C19.2071 24.466 20.0694 24.3007 20.8858 23.9949C21.5832 23.7244 22.2165 23.3116 22.7454 22.7827C23.2743 22.2538 23.6872 21.6204 23.9576 20.923C24.2644 20.1064 24.4289 19.2454 24.4464 18.3727C24.4966 17.2504 24.5118 16.8945 24.5118 14.0444C24.5118 11.1942 24.5118 10.8325 24.4464 9.71603C24.4329 8.83201 24.2667 7.95698 23.9553 7.12953ZM22.5343 18.2502C22.5268 18.9225 22.404 19.5886 22.1714 20.2195C21.9962 20.6732 21.728 21.0852 21.384 21.429C21.04 21.7728 20.6279 22.0408 20.1741 22.2157C19.5502 22.4472 18.8912 22.5699 18.2258 22.5785C17.1174 22.6299 16.8048 22.6427 13.9628 22.6427C11.1184 22.6427 10.8279 22.6427 9.69861 22.5785C9.03352 22.5704 8.37482 22.4476 7.75144 22.2157C7.29608 22.0418 6.88228 21.7743 6.53681 21.4305C6.19135 21.0866 5.92192 20.6741 5.74594 20.2195C5.51663 19.5954 5.39397 18.9372 5.38311 18.2724C5.33294 17.164 5.32127 16.8514 5.32127 14.0094C5.32127 11.1662 5.32127 10.8757 5.38311 9.74519C5.39065 9.07322 5.51337 8.40752 5.74594 7.77703C6.10177 6.85653 6.83094 6.13203 7.75144 5.77969C8.37513 5.54886 9.03364 5.42615 9.69861 5.41686C10.8081 5.36669 11.1196 5.35269 13.9628 5.35269C16.8059 5.35269 17.0976 5.35269 18.2258 5.41686C18.8913 5.42487 19.5504 5.54761 20.1741 5.77969C20.6279 5.95501 21.0399 6.22326 21.3839 6.56723C21.7279 6.91119 21.9961 7.32328 22.1714 7.77703C22.4008 8.40113 22.5234 9.05938 22.5343 9.72419C22.5844 10.8337 22.5973 11.1452 22.5973 13.9884C22.5973 16.8304 22.5973 17.136 22.5471 18.2514H22.5343V18.2502Z" fill="white"/>
</svg>
