<svg width="28" height="28" viewBox="0 0 28 28" fill="none" xmlns="http://www.w3.org/2000/svg">
<path d="M13.9999 2.3335C7.56692 2.3335 2.33325 7.56716 2.33325 14.0002C2.33325 20.4332 7.56692 25.6668 13.9999 25.6668C20.4329 25.6668 25.6666 20.4332 25.6666 14.0002C25.6666 7.56716 20.4329 2.3335 13.9999 2.3335ZM4.66659 14.0002C4.66659 12.9513 4.84859 11.9445 5.16942 11.003L6.99992 12.8335L9.33325 15.1668V17.5002L11.6666 19.8335L12.8333 21.0002V23.253C8.23775 22.6755 4.66659 18.7508 4.66659 14.0002ZM21.3849 19.6853C20.6231 19.0717 19.4681 18.6668 18.6666 18.6668V17.5002C18.6666 16.8813 18.4208 16.2878 17.9832 15.8502C17.5456 15.4127 16.9521 15.1668 16.3333 15.1668H11.6666V11.6668C12.2854 11.6668 12.8789 11.421 13.3165 10.9834C13.7541 10.5458 13.9999 9.95233 13.9999 9.3335V8.16683H15.1666C15.7854 8.16683 16.3789 7.921 16.8165 7.48341C17.2541 7.04583 17.4999 6.45233 17.4999 5.8335V5.354C20.9159 6.74116 23.3333 10.0918 23.3333 14.0002C23.333 16.059 22.6476 18.0592 21.3849 19.6853Z" fill="white"/>
</svg>
